<?xml version="1.0" encoding="UTF-8"?>
<svg xmlns="http://www.w3.org/2000/svg" viewBox="0 0 1024 559" width="1024" height="559">
  <rect width="1024" height="559" fill="#FAFAF8"/>
  <g transform="translate(0,559) scale(0.1,-0.1)">
    <path d="M0 2795 c0 -2795 0 -2795 5120 -2795 5120 0 5120 0 5120 2795 0 2795 0 2795 -5120 2795 -5120 0 -5120 0 -5120 -2795z m3167 973 c243 -243 243 -243 243 -674 0 -431 0 -431 -105 -534 -58 -57 -105 -108 -105 -114 0 -13 -41 -56 -54 -56 -13 0 -76 -61 -76 -74 0 -6 -37 -48 -82 -93 -83 -83 -83 -83 -485 -83 -403 0 -403 0 -403 -259 0 -258 0 -258 -87 -344 -88 -87 -88 -87 -356 -87 -267 0 -267 0 -267 710 0 710 0 710 191 710 107 0 198 4 209 10 18 10 47 75 41 94 -3 14 30 86 40 86 9 0 17 -31 17 -65 0 -27 86 -271 102 -290 14 -16 67 -20 89 -6 13 9 60 176 61 216 0 21 25 147 41 205 6 19 12 60 14 90 5 77 16 140 25 140 9 0 20 -64 26 -155 2 -38 11 -96 19 -128 8 -32 15 -69 15 -83 0 -13 5 -43 10 -66 15 -62 61 -294 70 -353 17 -109 28 -125 89 -125 35 0 55 25 66 80 13 67 74 295 102 383 8 26 13 54 9 62 -6 18 12 75 25 75 11 0 32 -50 25 -58 -7 -7 22 -73 41 -94 14 -16 35 -18 161 -18 163 0 182 7 182 64 0 57 -8 61 -141 66 -121 5 -121 5 -175 134 -30 71 -59 135 -65 143 -26 31 -109 4 -109 -36 0 -8 -6 -33 -14 -56 -30 -85 -66 -223 -66 -251 0 -41 -31 -164 -41 -164 -10 0 -10 3 -14 78 -1 26 -17 117 -34 202 -17 85 -36 186 -42 225 -6 38 -15 77 -20 87 -5 9 -9 31 -9 48 0 18 -7 59 -15 93 -8 34 -17 83 -20 109 -10 84 -64 122 -114 81 -21 -18 -23 -25 -77 -298 -9 -44 -22 -105 -30 -136 -8 -31 -18 -98 -23 -150 -14 -139 -28 -162 -51 -86 -7 23 -17 60 -21 82 -10 52 -46 154 -60 171 -21 26 -75 17 -98 -15 -12 -16 -21 -32 -21 -36 0 -4 -21 -56 -46 -116 -46 -109 -46 -109 -83 -109 -21 0 -93 -3 -159 -7 -122 -6 -122 -6 -122 324 0 330 0 330 178 512 178 181 178 181 768 181 589 0 589 0 831 -242z m2553 -803 c0 -1035 0 -1035 -175 -1035 -175 0 -175 0 -175 989 0 988 0 988 63 1005 34 10 78 23 97 31 20 7 47 11 61 8 15 -3 32 1 41 10 15 15 39 24 71 26 16 1 17 -55 17 -1034z m-1678 -116 c3 -530 3 -530 50 -575 47 -44 47 -44 263 -44 237 0 250 3 299 60 26 32 26 32 26 561 0 529 0 529 180 529 180 0 180 0 180 -548 0 -668 7 -628 -130 -763 -133 -131 -147 -134 -540 -133 -394 1 -405 2 -480 63 -93 75 -146 136 -178 204 -32 67 -32 67 -32 622 0 555 0 555 180 555 179 0 179 0 182 -531z m3144 504 c-24 -101 -60 -250 -62 -260 -3 -10 -80 -13 -345 -13 -341 0 -341 0 -375 -34 -32 -32 -34 -38 -34 -104 0 -63 3 -73 29 -101 29 -31 29 -31 298 -31 315 0 321 -2 434 -111 114 -112 113 -110 117 -289 5 -218 -1 -241 -100 -346 -137 -144 -88 -134 -647 -134 -352 0 -481 3 -481 11 0 12 11 57 35 144 8 28 19 71 26 98 12 47 12 47 384 47 373 0 373 0 404 32 29 30 31 36 31 107 0 65 -4 80 -24 106 -24 30 -24 30 -313 35 -336 6 -308 -3 -439 132 -58 59 -85 95 -93 123 -17 63 -14 312 5 368 20 59 157 201 202 210 17 3 36 13 44 21 11 13 75 15 462 16 448 0 448 0 442 -27z m1404 -2 c68 -36 202 -172 236 -239 29 -57 29 -57 29 -457 0 -476 3 -463 -137 -597 -136 -129 -108 -123 -548 -123 -438 0 -405 -7 -542 123 -140 134 -138 124 -138 597 0 473 -2 463 140 599 137 131 120 127 550 124 363 -3 365 -3 410 -27z M7925 3076 c-35 -15 -82 -67 -90 -99 -3 -12 -5 -165 -3 -339 3 -353 1 -343 78 -395 32 -22 41 -23 263 -23 257 0 273 4 316 74 20 32 21 48 21 361 0 328 0 328 -26 362 -54 71 -64 73 -309 73 -160 -1 -228 -4 -250 -14z" fill="#0D1B2A" fill-rule="evenodd"/>
  </g>
</svg>