<?xml version="1.0" encoding="UTF-8"?>
<!-- Generator: visioncortex VTracer -->
<svg id="svg" version="1.1" xmlns="http://www.w3.org/2000/svg" style="display: block;" viewBox="0 0 1024 559"><path d="M0,0 L1024,0 L1024,559 L0,559 Z " transform="translate(0,0)" style="fill: #FAFAF8;"/><path d="M0,0 L1024,0 L1024,559 L0,559 Z M49,31 L49,158 L50,158 L50,159 L49,159 L49,221 L50,221 L50,222 L49,222 L49,514 L975,514 L975,414 L973,414 L973,412 L975,412 L975,366 L973,366 L973,365 L975,365 L975,222 L969,222 L969,221 L975,221 L975,159 L973,159 L973,158 L975,158 L975,31 L885,31 L885,32 L884,32 L884,31 L341,31 L341,32 L339,32 L339,31 L140,31 L140,32 L139,32 L139,31 Z " transform="translate(0,0)" style="fill: #FAFAF8;"/><path d="M0,0 L117,0 L117,1 L118,1 L118,2 L119,2 L119,3 L120,3 L120,4 L121,4 L121,5 L122,5 L122,6 L123,6 L123,7 L124,7 L124,8 L125,8 L125,9 L126,9 L126,10 L127,10 L127,11 L128,11 L128,12 L129,12 L129,13 L130,13 L130,14 L131,14 L131,15 L132,15 L132,16 L133,16 L133,17 L134,17 L134,18 L135,18 L135,19 L136,19 L136,20 L137,20 L137,21 L138,21 L138,22 L139,22 L139,23 L140,23 L140,24 L141,24 L141,25 L142,25 L142,26 L143,26 L143,27 L144,27 L144,28 L145,28 L145,29 L146,29 L146,30 L147,30 L147,31 L148,31 L148,32 L149,32 L149,33 L150,33 L150,34 L151,34 L151,35 L152,35 L152,36 L153,36 L153,37 L154,37 L154,38 L155,38 L155,39 L156,39 L156,40 L157,40 L157,41 L158,41 L158,42 L159,42 L159,43 L160,43 L160,44 L161,44 L161,45 L162,45 L162,46 L163,46 L163,47 L164,47 L164,48 L165,48 L165,136 L164,136 L164,137 L163,137 L163,138 L162,138 L162,139 L161,139 L161,140 L160,140 L160,141 L159,141 L159,142 L158,142 L158,143 L157,143 L157,144 L156,144 L156,145 L155,145 L155,146 L154,146 L154,147 L153,147 L153,148 L152,148 L152,149 L151,149 L151,150 L150,150 L150,151 L149,151 L149,152 L148,152 L148,153 L147,153 L147,154 L146,154 L146,155 L145,155 L145,156 L144,156 L144,157 L143,157 L143,158 L142,158 L142,159 L141,159 L141,160 L140,160 L140,161 L139,161 L139,162 L138,162 L138,163 L137,163 L137,164 L136,164 L136,165 L135,165 L135,166 L134,166 L134,167 L133,167 L133,168 L132,168 L132,169 L131,169 L131,170 L130,170 L130,171 L129,171 L129,172 L128,172 L128,173 L127,173 L127,174 L126,174 L126,175 L125,175 L125,176 L124,176 L124,177 L123,177 L123,178 L122,178 L122,179 L121,179 L121,180 L120,180 L120,181 L119,181 L119,182 L118,182 L118,183 L117,183 L117,184 L116,184 L116,185 L115,185 L115,186 L34,186 L34,239 L32,239 L32,240 L31,240 L31,241 L30,241 L30,242 L29,242 L29,243 L28,243 L28,244 L27,244 L27,245 L26,245 L26,246 L25,246 L25,247 L24,247 L24,248 L23,248 L23,249 L22,249 L22,250 L21,250 L21,251 L20,251 L20,252 L19,252 L19,253 L18,253 L18,254 L17,254 L17,255 L-36,255 L-36,113 L2,113 L2,112 L4,112 L4,111 L5,111 L5,109 L6,109 L6,106 L7,106 L7,104 L8,104 L8,101 L9,101 L9,99 L10,99 L10,97 L11,97 L11,95 L12,95 L12,97 L13,97 L13,102 L14,102 L14,104 L15,104 L15,106 L16,106 L16,110 L17,110 L17,112 L18,112 L18,115 L19,115 L19,119 L20,119 L20,121 L21,121 L21,125 L22,125 L22,127 L23,127 L23,129 L24,129 L24,130 L25,130 L25,131 L31,131 L31,130 L33,130 L33,128 L34,128 L34,125 L35,125 L35,120 L36,120 L36,116 L37,116 L37,112 L38,112 L38,104 L39,104 L39,100 L40,100 L40,96 L41,96 L41,89 L42,89 L42,87 L43,87 L43,80 L44,80 L44,75 L45,75 L45,72 L46,72 L46,66 L47,66 L47,71 L48,71 L48,77 L49,77 L49,82 L50,82 L50,89 L51,89 L51,94 L52,94 L52,97 L53,97 L53,106 L54,106 L54,109 L55,109 L55,116 L56,116 L56,121 L57,121 L57,125 L58,125 L58,131 L59,131 L59,136 L60,136 L60,139 L61,139 L61,147 L62,147 L62,151 L63,151 L63,154 L64,154 L64,155 L66,155 L66,156 L72,156 L72,155 L73,155 L73,154 L74,154 L74,152 L75,152 L75,148 L76,148 L76,143 L77,143 L77,140 L78,140 L78,136 L79,136 L79,132 L80,132 L80,129 L81,129 L81,123 L82,123 L82,121 L83,121 L83,118 L84,118 L84,112 L85,112 L85,110 L86,110 L86,107 L87,107 L87,102 L88,102 L88,99 L89,99 L89,97 L90,97 L90,98 L91,98 L91,101 L92,101 L92,103 L93,103 L93,106 L94,106 L94,108 L95,108 L95,110 L96,110 L96,111 L97,111 L97,112 L98,112 L98,113 L127,113 L127,112 L128,112 L128,111 L129,111 L129,110 L130,110 L130,104 L129,104 L129,102 L127,102 L127,101 L104,101 L104,100 L103,100 L103,97 L102,97 L102,95 L101,95 L101,93 L100,93 L100,90 L99,90 L99,88 L98,88 L98,85 L97,85 L97,83 L96,83 L96,81 L95,81 L95,78 L94,78 L94,76 L93,76 L93,74 L92,74 L92,73 L91,73 L91,72 L85,72 L85,73 L84,73 L84,74 L83,74 L83,75 L82,75 L82,80 L81,80 L81,82 L80,82 L80,85 L79,85 L79,90 L78,90 L78,93 L77,93 L77,96 L76,96 L76,100 L75,100 L75,103 L74,103 L74,108 L73,108 L73,112 L72,112 L72,115 L71,115 L71,120 L70,120 L70,123 L69,123 L69,120 L68,120 L68,113 L67,113 L67,109 L66,109 L66,104 L65,104 L65,98 L64,98 L64,93 L63,93 L63,88 L62,88 L62,82 L61,82 L61,79 L60,79 L60,71 L59,71 L59,66 L58,66 L58,64 L57,64 L57,55 L56,55 L56,51 L55,51 L55,48 L54,48 L54,39 L53,39 L53,35 L52,35 L52,33 L51,33 L51,32 L50,32 L50,31 L49,31 L49,30 L45,30 L45,31 L43,31 L43,32 L42,32 L42,33 L41,33 L41,36 L40,36 L40,40 L39,40 L39,46 L38,46 L38,50 L37,50 L37,57 L36,57 L36,61 L35,61 L35,65 L34,65 L34,72 L33,72 L33,75 L32,75 L32,79 L31,79 L31,85 L30,85 L30,89 L29,89 L29,96 L28,96 L28,100 L27,100 L27,102 L26,102 L26,99 L25,99 L25,96 L24,96 L24,93 L23,93 L23,91 L22,91 L22,87 L21,87 L21,85 L20,85 L20,83 L19,83 L19,79 L18,79 L18,76 L17,76 L17,74 L16,74 L16,73 L15,73 L15,72 L9,72 L9,73 L8,73 L8,74 L7,74 L7,76 L6,76 L6,77 L5,77 L5,80 L4,80 L4,83 L3,83 L3,85 L2,85 L2,88 L1,88 L1,90 L0,90 L0,92 L-1,92 L-1,95 L-2,95 L-2,97 L-3,97 L-3,99 L-4,99 L-4,101 L-36,101 L-36,35 L-34,35 L-34,34 L-33,34 L-33,33 L-32,33 L-32,32 L-31,32 L-31,31 L-30,31 L-30,30 L-29,30 L-29,29 L-28,29 L-28,28 L-27,28 L-27,27 L-26,27 L-26,26 L-25,26 L-25,24 L-23,24 L-23,22 L-22,22 L-22,21 L-20,21 L-20,19 L-19,19 L-19,18 L-18,18 L-18,17 L-17,17 L-17,16 L-16,16 L-16,15 L-15,15 L-15,14 L-14,14 L-14,13 L-13,13 L-13,12 L-12,12 L-12,11 L-11,11 L-11,10 L-10,10 L-10,9 L-9,9 L-9,8 L-7,8 L-7,6 L-6,6 L-6,5 L-4,5 L-4,3 L-3,3 L-3,2 L-1,2 L-1,1 L0,1 Z " transform="translate(175,158)" style="fill: #0D1B2A;"/><path d="M0,0 L69,0 L69,1 L74,1 L74,2 L76,2 L76,3 L78,3 L78,4 L80,4 L80,5 L81,5 L81,6 L83,6 L83,7 L84,7 L84,8 L85,8 L85,9 L86,9 L86,10 L87,10 L87,11 L88,11 L88,12 L89,12 L89,13 L90,13 L90,14 L91,14 L91,15 L92,15 L92,16 L93,16 L93,17 L94,17 L94,18 L95,18 L95,19 L96,19 L96,20 L97,20 L97,21 L98,21 L98,23 L99,23 L99,25 L100,25 L100,26 L101,26 L101,28 L102,28 L102,31 L103,31 L103,35 L104,35 L104,110 L103,110 L103,113 L102,113 L102,116 L101,116 L101,118 L100,118 L100,120 L99,120 L99,122 L98,122 L98,123 L97,123 L97,124 L96,124 L96,126 L95,126 L95,127 L94,127 L94,128 L93,128 L93,129 L92,129 L92,130 L91,130 L91,131 L90,131 L90,132 L88,132 L88,133 L87,133 L87,134 L86,134 L86,135 L85,135 L85,136 L84,136 L84,137 L83,137 L83,138 L82,138 L82,139 L80,139 L80,140 L79,140 L79,141 L76,141 L76,142 L74,142 L74,143 L68,143 L68,144 L3,144 L3,143 L-3,143 L-3,142 L-5,142 L-5,141 L-7,141 L-7,140 L-9,140 L-9,139 L-10,139 L-10,138 L-11,138 L-11,137 L-13,137 L-13,136 L-14,136 L-14,135 L-15,135 L-15,134 L-16,134 L-16,133 L-17,133 L-17,132 L-18,132 L-18,131 L-19,131 L-19,130 L-20,130 L-20,129 L-21,129 L-21,128 L-22,128 L-22,127 L-23,127 L-23,126 L-24,126 L-24,125 L-25,125 L-25,124 L-26,124 L-26,123 L-27,123 L-27,121 L-28,121 L-28,119 L-29,119 L-29,118 L-30,118 L-30,114 L-31,114 L-31,111 L-32,111 L-32,33 L-31,33 L-31,30 L-30,30 L-30,26 L-29,26 L-29,25 L-28,25 L-28,23 L-27,23 L-27,21 L-26,21 L-26,20 L-25,20 L-25,19 L-24,19 L-24,18 L-23,18 L-23,17 L-22,17 L-22,16 L-21,16 L-21,15 L-20,15 L-20,14 L-19,14 L-19,13 L-18,13 L-18,12 L-17,12 L-17,11 L-16,11 L-16,10 L-15,10 L-15,9 L-14,9 L-14,8 L-13,8 L-13,7 L-11,7 L-11,6 L-10,6 L-10,5 L-9,5 L-9,4 L-7,4 L-7,3 L-5,3 L-5,2 L-3,2 L-3,1 L0,1 Z " transform="translate(781,221)" style="fill: #0D1B2A;"/><path d="M0,0 L35,0 L35,103 L36,103 L36,107 L37,107 L37,108 L38,108 L38,109 L39,109 L39,110 L40,110 L40,111 L41,111 L41,112 L42,112 L42,113 L43,113 L43,114 L45,114 L45,115 L90,115 L90,114 L92,114 L92,113 L94,113 L94,112 L95,112 L95,111 L96,111 L96,110 L97,110 L97,109 L98,109 L98,108 L99,108 L99,106 L100,106 L100,0 L135,0 L135,110 L134,110 L134,113 L133,113 L133,116 L132,116 L132,119 L131,119 L131,121 L130,121 L130,122 L129,122 L129,124 L128,124 L128,125 L127,125 L127,126 L126,126 L126,127 L125,127 L125,128 L124,128 L124,129 L123,129 L123,130 L122,130 L122,131 L121,131 L121,132 L120,132 L120,133 L119,133 L119,134 L118,134 L118,135 L116,135 L116,136 L115,136 L115,137 L114,137 L114,138 L113,138 L113,139 L111,139 L111,140 L110,140 L110,141 L108,141 L108,142 L105,142 L105,143 L102,143 L102,144 L35,144 L35,143 L30,143 L30,142 L28,142 L28,141 L25,141 L25,140 L24,140 L24,139 L23,139 L23,138 L21,138 L21,137 L20,137 L20,136 L19,136 L19,135 L18,135 L18,134 L17,134 L17,133 L16,133 L16,132 L14,132 L14,130 L12,130 L12,129 L11,129 L11,128 L10,128 L10,127 L9,127 L9,126 L8,126 L8,124 L7,124 L7,123 L6,123 L6,121 L5,121 L5,120 L4,120 L4,118 L3,118 L3,115 L2,115 L2,113 L1,113 L1,111 L0,111 Z " transform="translate(368,221)" style="fill: #0D1B2A;"/><path d="M0,0 L90,0 L90,2 L89,2 L89,7 L88,7 L88,10 L87,10 L87,14 L86,14 L86,18 L85,18 L85,22 L84,22 L84,28 L83,28 L83,29 L15,29 L15,30 L13,30 L13,31 L12,31 L12,32 L11,32 L11,33 L10,33 L10,34 L9,34 L9,36 L8,36 L8,51 L9,51 L9,52 L10,52 L10,54 L11,54 L11,55 L12,55 L12,56 L14,56 L14,57 L68,57 L68,58 L71,58 L71,59 L73,59 L73,60 L75,60 L75,61 L77,61 L77,62 L78,62 L78,63 L79,63 L79,64 L80,64 L80,65 L81,65 L81,66 L83,66 L83,67 L84,67 L84,68 L85,68 L85,69 L86,69 L86,71 L87,71 L87,72 L88,72 L88,73 L90,73 L90,74 L91,74 L91,76 L92,76 L92,77 L93,77 L93,79 L94,79 L94,80 L95,80 L95,84 L96,84 L96,115 L95,115 L95,118 L94,118 L94,122 L93,122 L93,123 L92,123 L92,124 L91,124 L91,126 L90,126 L90,127 L89,127 L89,128 L88,128 L88,129 L87,129 L87,130 L86,130 L86,131 L85,131 L85,132 L84,132 L84,133 L83,133 L83,134 L82,134 L82,135 L81,135 L81,136 L80,136 L80,137 L79,137 L79,138 L78,138 L78,139 L77,139 L77,140 L75,140 L75,141 L73,141 L73,142 L72,142 L72,143 L70,143 L70,144 L-26,144 L-26,141 L-25,141 L-25,138 L-24,138 L-24,132 L-23,132 L-23,129 L-22,129 L-22,127 L-21,127 L-21,121 L-20,121 L-20,118 L-19,118 L-19,115 L56,115 L56,114 L57,114 L57,113 L59,113 L59,111 L60,111 L60,110 L61,110 L61,109 L62,109 L62,92 L61,92 L61,91 L60,91 L60,89 L59,89 L59,88 L58,88 L58,87 L56,87 L56,86 L3,86 L3,85 L-2,85 L-2,84 L-4,84 L-4,83 L-5,83 L-5,82 L-7,82 L-7,81 L-8,81 L-8,80 L-9,80 L-9,79 L-10,79 L-10,78 L-11,78 L-11,77 L-12,77 L-12,76 L-13,76 L-13,75 L-14,75 L-14,74 L-15,74 L-15,73 L-16,73 L-16,72 L-17,72 L-17,71 L-18,71 L-18,70 L-19,70 L-19,69 L-20,69 L-20,68 L-21,68 L-21,67 L-22,67 L-22,66 L-23,66 L-23,64 L-24,64 L-24,62 L-25,62 L-25,58 L-26,58 L-26,28 L-25,28 L-25,25 L-24,25 L-24,22 L-23,22 L-23,20 L-22,20 L-22,19 L-21,19 L-21,18 L-20,18 L-20,17 L-19,17 L-19,16 L-18,16 L-18,15 L-17,15 L-17,13 L-16,13 L-16,12 L-15,12 L-15,11 L-13,11 L-13,9 L-12,9 L-12,8 L-10,8 L-10,7 L-9,7 L-9,6 L-8,6 L-8,5 L-7,5 L-7,4 L-6,4 L-6,3 L-4,3 L-4,2 L-2,2 L-2,1 L0,1 Z " transform="translate(628,221)" style="fill: #0D1B2A;"/><path d="M0,0 L3,0 L3,206 L-31,206 L-31,9 L-28,9 L-28,8 L-25,8 L-25,7 L-21,7 L-21,6 L-17,6 L-17,5 L-15,5 L-15,4 L-12,4 L-12,3 L-7,3 L-7,2 L-5,2 L-5,1 L0,1 Z " transform="translate(568,159)" style="fill: #0D1B2A;"/><path d="M0,0 L44,0 L44,1 L46,1 L46,2 L48,2 L48,3 L49,3 L49,4 L50,4 L50,5 L51,5 L51,6 L52,6 L52,7 L53,7 L53,9 L54,9 L54,10 L55,10 L55,76 L54,76 L54,78 L53,78 L53,79 L52,79 L52,81 L51,81 L51,82 L50,82 L50,83 L48,83 L48,84 L47,84 L47,85 L45,85 L45,86 L-1,86 L-1,85 L-3,85 L-3,84 L-5,84 L-5,83 L-6,83 L-6,82 L-7,82 L-7,81 L-8,81 L-8,80 L-9,80 L-9,79 L-10,79 L-10,77 L-11,77 L-11,74 L-12,74 L-12,11 L-11,11 L-11,9 L-10,9 L-10,7 L-9,7 L-9,6 L-8,6 L-8,5 L-7,5 L-7,4 L-6,4 L-6,3 L-5,3 L-5,2 L-3,2 L-3,1 L0,1 Z " transform="translate(795,250)" style="fill: #FAFAF8;"/><path d="M0,0 L4,0 L4,1 L5,1 L5,2 L6,2 L6,3 L7,3 L7,5 L8,5 L8,9 L9,9 L9,18 L10,18 L10,21 L11,21 L11,25 L12,25 L12,34 L13,34 L13,36 L14,36 L14,41 L15,41 L15,49 L16,49 L16,52 L17,52 L17,58 L18,58 L18,63 L19,63 L19,68 L20,68 L20,74 L21,74 L21,79 L22,79 L22,83 L23,83 L23,90 L24,90 L24,93 L25,93 L25,90 L26,90 L26,85 L27,85 L27,82 L28,82 L28,78 L29,78 L29,73 L30,73 L30,70 L31,70 L31,66 L32,66 L32,63 L33,63 L33,60 L34,60 L34,55 L35,55 L35,52 L36,52 L36,50 L37,50 L37,45 L38,45 L38,44 L39,44 L39,43 L40,43 L40,42 L46,42 L46,43 L47,43 L47,44 L48,44 L48,46 L49,46 L49,48 L50,48 L50,51 L51,51 L51,53 L52,53 L52,55 L53,55 L53,58 L54,58 L54,60 L55,60 L55,63 L56,63 L56,65 L57,65 L57,67 L58,67 L58,70 L59,70 L59,71 L82,71 L82,72 L84,72 L84,74 L85,74 L85,80 L84,80 L84,81 L83,81 L83,82 L82,82 L82,83 L53,83 L53,82 L52,82 L52,81 L51,81 L51,80 L50,80 L50,78 L49,78 L49,76 L48,76 L48,73 L47,73 L47,71 L46,71 L46,68 L45,68 L45,67 L44,67 L44,69 L43,69 L43,72 L42,72 L42,77 L41,77 L41,80 L40,80 L40,82 L39,82 L39,88 L38,88 L38,91 L37,91 L37,93 L36,93 L36,99 L35,99 L35,102 L34,102 L34,106 L33,106 L33,110 L32,110 L32,113 L31,113 L31,118 L30,118 L30,122 L29,122 L29,124 L28,124 L28,125 L27,125 L27,126 L21,126 L21,125 L19,125 L19,124 L18,124 L18,121 L17,121 L17,117 L16,117 L16,109 L15,109 L15,106 L14,106 L14,101 L13,101 L13,95 L12,95 L12,91 L11,91 L11,86 L10,86 L10,79 L9,79 L9,76 L8,76 L8,67 L7,67 L7,64 L6,64 L6,59 L5,59 L5,52 L4,52 L4,47 L3,47 L3,41 L2,41 L2,36 L1,36 L1,42 L0,42 L0,45 L-1,45 L-1,50 L-2,50 L-2,57 L-3,57 L-3,59 L-4,59 L-4,66 L-5,66 L-5,70 L-6,70 L-6,74 L-7,74 L-7,82 L-8,82 L-8,86 L-9,86 L-9,90 L-10,90 L-10,95 L-11,95 L-11,98 L-12,98 L-12,100 L-14,100 L-14,101 L-20,101 L-20,100 L-21,100 L-21,99 L-22,99 L-22,97 L-23,97 L-23,95 L-24,95 L-24,91 L-25,91 L-25,89 L-26,89 L-26,85 L-27,85 L-27,82 L-28,82 L-28,80 L-29,80 L-29,76 L-30,76 L-30,74 L-31,74 L-31,72 L-32,72 L-32,67 L-33,67 L-33,65 L-34,65 L-34,67 L-35,67 L-35,69 L-36,69 L-36,71 L-37,71 L-37,74 L-38,74 L-38,76 L-39,76 L-39,79 L-40,79 L-40,81 L-41,81 L-41,82 L-43,82 L-43,83 L-81,83 L-81,82 L-80,82 L-80,81 L-81,81 L-81,71 L-49,71 L-49,69 L-48,69 L-48,67 L-47,67 L-47,65 L-46,65 L-46,62 L-45,62 L-45,60 L-44,60 L-44,58 L-43,58 L-43,55 L-42,55 L-42,53 L-41,53 L-41,50 L-40,50 L-40,47 L-39,47 L-39,46 L-38,46 L-38,44 L-37,44 L-37,43 L-36,43 L-36,42 L-30,42 L-30,43 L-29,43 L-29,44 L-28,44 L-28,46 L-27,46 L-27,49 L-26,49 L-26,53 L-25,53 L-25,55 L-24,55 L-24,57 L-23,57 L-23,61 L-22,61 L-22,63 L-21,63 L-21,66 L-20,66 L-20,69 L-19,69 L-19,72 L-18,72 L-18,70 L-17,70 L-17,66 L-16,66 L-16,59 L-15,59 L-15,55 L-14,55 L-14,49 L-13,49 L-13,45 L-12,45 L-12,42 L-11,42 L-11,35 L-10,35 L-10,31 L-9,31 L-9,27 L-8,27 L-8,20 L-7,20 L-7,16 L-6,16 L-6,10 L-5,10 L-5,6 L-4,6 L-4,3 L-3,3 L-3,2 L-2,2 L-2,1 L0,1 Z " transform="translate(220,188)" style="fill: #C8D0D8;"/><path d="M0,0 L928,0 L928,1 L929,1 L929,483 L928,483 L928,486 L0,486 Z M1,2 L1,129 L2,129 L2,130 L1,130 L1,192 L2,192 L2,193 L1,193 L1,485 L927,485 L927,385 L925,385 L925,383 L927,383 L927,337 L925,337 L925,336 L927,336 L927,193 L921,193 L921,192 L927,192 L927,130 L925,130 L925,129 L927,129 L927,2 L837,2 L837,3 L836,3 L836,2 L293,2 L293,3 L291,3 L291,2 L92,2 L92,3 L91,3 L91,2 Z " transform="translate(48,29)" style="fill: #E8E1D4;"/><path d="M0,0 L30,0 L30,30 L2,30 L2,513 L30,513 L30,514 L0,514 L0,30 L-11,30 L-11,28 L0,28 Z " transform="translate(994,1)" style="fill: #E8E1D4;"/><path d="M0,0 L28,0 L28,513 L27,513 L27,30 L0,30 Z " transform="translate(1,1)" style="fill: #C8D0D8;"/><path d="M0,0 L2,0 L2,35 L0,35 L0,10 L-926,10 L-926,35 L-927,35 L-927,1 L-926,1 L-926,9 L0,9 Z " transform="translate(975,524)" style="fill: #E8E1D4;"/><path d="M0,0 L28,0 L28,28 L0,28 Z " transform="translate(996,1)" style="fill: #FAFAF8;"/><path d="M0,0 L2,0 L2,63 L3,63 L3,64 L6,64 L6,65 L15,65 L15,66 L0,66 Z " transform="translate(139,193)" style="fill: #0D1B2A;"/><path d="M0,0 L1,0 L1,4 L2,4 L2,6 L0,6 L0,8 L-1,8 L-1,9 L91,9 L91,10 L-2,10 L-2,7 L-1,7 L-1,4 L0,4 Z " transform="translate(604,355)" style="fill: #0D1B2A;"/><path d="M0,0 L1,0 L1,5 L0,5 L0,3 L-1,3 L-1,4 L-2,4 L-2,5 L-3,5 L-3,6 L-4,6 L-4,7 L-5,7 L-5,9 L-7,9 L-7,10 L-8,10 L-8,11 L-9,11 L-9,12 L-10,12 L-10,13 L-11,13 L-11,14 L-12,14 L-12,15 L-13,15 L-13,16 L-14,16 L-14,19 L-17,19 L-17,20 L-18,20 L-18,21 L-19,21 L-19,22 L-20,22 L-20,23 L-21,23 L-21,24 L-22,24 L-22,25 L-23,25 L-23,26 L-24,26 L-24,27 L-25,27 L-25,28 L-26,28 L-26,29 L-27,29 L-27,30 L-28,30 L-28,31 L-29,31 L-29,32 L-30,32 L-30,33 L-32,33 L-32,32 L-31,32 L-31,31 L-30,31 L-30,30 L-29,30 L-29,29 L-28,29 L-28,28 L-27,28 L-27,27 L-26,27 L-26,26 L-25,26 L-25,25 L-24,25 L-24,24 L-23,24 L-23,23 L-22,23 L-22,22 L-21,22 L-21,21 L-20,21 L-20,20 L-19,20 L-19,19 L-18,19 L-18,18 L-17,18 L-17,17 L-16,17 L-16,16 L-15,16 L-15,15 L-14,15 L-14,14 L-13,14 L-13,13 L-12,13 L-12,12 L-11,12 L-11,11 L-10,11 L-10,10 L-9,10 L-9,9 L-8,9 L-8,8 L-7,8 L-7,7 L-6,7 L-6,6 L-5,6 L-5,5 L-4,5 L-4,4 L-3,4 L-3,3 L-2,3 L-2,2 L-1,2 L-1,1 L0,1 Z " transform="translate(339,294)" style="fill: #C8D0D8;"/><path d="M0,0 L1,0 L1,5 L2,5 L2,11 L3,11 L3,13 L2,13 L2,16 L1,16 L1,17 L-1,17 L-1,12 L-2,12 L-2,9 L-1,9 L-1,6 L0,6 Z " transform="translate(221,224)" style="fill: #0D1B2A;"/><path d="M0,0 L1,0 L1,7 L0,7 L0,11 L-1,11 L-1,13 L-2,13 L-2,10 L-3,10 L-3,7 L-4,7 L-4,4 L-5,4 L-5,1 L-4,1 L-4,2 L-3,2 L-3,3 L-1,3 L-1,2 L0,2 Z " transform="translate(203,247)" style="fill: #0D1B2A;"/><path d="M0,0 L2,0 L2,1 L3,1 L3,3 L2,3 L2,4 L1,4 L1,6 L0,6 L0,21 L-1,21 L-1,5 L-2,5 L-2,2 L-1,2 L-1,1 L0,1 Z " transform="translate(636,251)" style="fill: #0D1B2A;"/><path d="M0,0 L1,0 L1,5 L0,5 L0,8 L-1,8 L-1,13 L-2,13 L-2,16 L-3,16 L-3,13 L-4,13 L-4,11 L-3,11 L-3,6 L-2,6 L-2,3 L0,3 Z " transform="translate(247,265)" style="fill: #0D1B2A;"/><path d="M0,0 L2,0 L2,1 L1,1 L1,2 L0,2 L0,3 L1,3 L1,5 L-2,5 L-2,4 L-3,4 L-3,5 L-5,5 L-5,4 L-13,4 L-13,3 L-6,3 L-6,2 L-3,2 L-3,1 L0,1 Z " transform="translate(476,362)" style="fill: #E8E1D4;"/><path d="M0,0 L2,0 L2,11 L1,11 L1,8 L0,8 L0,11 L-1,11 L-1,5 L0,5 Z " transform="translate(883,320)" style="fill: #0D1B2A;"/><path d="M0,0 L1,0 L1,1 L2,1 L2,2 L1,2 L1,4 L0,4 L0,5 L-1,5 L-1,6 L-2,6 L-2,7 L-3,7 L-3,8 L-4,8 L-4,9 L-5,9 L-5,7 L-6,7 L-6,6 L-4,6 L-4,4 L-3,4 L-3,3 L-1,3 L-1,1 L0,1 Z " transform="translate(172,160)" style="fill: #0D1B2A;"/><path d="M0,0 L1,0 L1,1 L2,1 L2,4 L3,4 L3,5 L2,5 L2,7 L1,7 L1,8 L0,8 L0,9 L-1,9 L-1,6 L-2,6 L-2,5 L-1,5 L-1,2 L0,2 Z " transform="translate(264,255)" style="fill: #0D1B2A;"/><path d="M0,0 L1,0 L1,4 L2,4 L2,10 L1,10 L1,13 L0,13 L0,5 L-1,5 L-1,2 L0,2 Z " transform="translate(722,301)" style="fill: #0D1B2A;"/><path d="M0,0 L1,0 L1,2 L2,2 L2,5 L1,5 L1,7 L-1,7 L-1,8 L-3,8 L-3,6 L-2,6 L-2,4 L-1,4 L-1,2 L0,2 Z " transform="translate(186,253)" style="fill: #0D1B2A;"/><path d="M0,0 L2,0 L2,1 L3,1 L3,2 L2,2 L2,3 L1,3 L1,4 L0,4 L0,5 L-1,5 L-1,6 L-2,6 L-2,5 L-3,5 L-3,2 L0,2 Z " transform="translate(316,313)" style="fill: #0D1B2A;"/><path d="M0,0 L1,0 L1,1 L3,1 L3,2 L1,2 L1,3 L-1,3 L-1,4 L-3,4 L-3,3 L-4,3 L-4,2 L-9,2 L-9,1 L-2,1 L-2,2 L0,2 Z " transform="translate(625,220)" style="fill: #E8E1D4;"/><path d="M0,0 L2,0 L2,1 L7,1 L7,2 L2,2 L2,3 L5,3 L5,4 L3,4 L3,5 L0,5 L0,4 L1,4 L1,2 L-1,2 L-1,1 L0,1 Z " transform="translate(558,157)" style="fill: #E8E1D4;"/><path d="M0,0 L4,0 L4,1 L7,1 L7,2 L5,2 L5,3 L3,3 L3,2 L2,2 L2,3 L-1,3 L-1,1 L0,1 Z " transform="translate(399,364)" style="fill: #E8E1D4;"/></svg>