<?xml version="1.0" encoding="UTF-8"?>
<!-- Generator: visioncortex VTracer 0.6.12 -->
<svg version="1.1" xmlns="http://www.w3.org/2000/svg" width="1024" height="559">
<path d="M0 0 C337.92 0 675.84 0 1024 0 C1024 184.47 1024 368.94 1024 559 C686.08 559 348.16 559 0 559 C0 374.53 0 190.06 0 0 Z " fill="#FDFEFD" transform="translate(0,0)"/>
<path d="M0 0 C337.92 0 675.84 0 1024 0 C1024 184.47 1024 368.94 1024 559 C686.08 559 348.16 559 0 559 C0 374.53 0 190.06 0 0 Z M48 29 C48 189.38 48 349.76 48 515 C281.115 515.04 281.115 515.04 370.257 515.048 C394.275 515.05 418.293 515.052 442.311 515.055 C444.424 515.055 446.537 515.055 448.65 515.055 C481.015 515.058 513.381 515.062 545.746 515.069 C546.094 515.069 546.094 515.069 547.856 515.069 C559.084 515.071 570.313 515.074 581.541 515.076 C613.869 515.082 646.197 515.089 678.524 515.091 C679.189 515.091 679.853 515.091 680.537 515.091 C694.464 515.092 708.391 515.093 722.317 515.094 C728.838 515.094 735.359 515.095 741.88 515.095 C743.164 515.095 744.447 515.095 745.77 515.095 C766.475 515.096 787.18 515.101 807.886 515.107 C828.674 515.113 849.463 515.115 870.252 515.114 C882.621 515.113 894.989 515.115 907.357 515.121 C915.603 515.125 923.849 515.125 932.095 515.122 C936.803 515.12 941.512 515.12 946.221 515.125 C950.495 515.129 954.769 515.128 959.042 515.124 C960.588 515.123 962.134 515.124 963.68 515.127 C965.762 515.131 967.844 515.128 969.925 515.124 C971.083 515.124 972.241 515.125 973.434 515.125 C976 515 976 515 977 514 C977.1 511.432 977.134 508.89 977.126 506.321 C977.127 505.503 977.129 504.685 977.13 503.842 C977.134 501.065 977.13 498.289 977.127 495.512 C977.128 493.515 977.13 491.519 977.132 489.522 C977.136 484.008 977.134 478.494 977.131 472.98 C977.128 467.044 977.132 461.108 977.135 455.172 C977.139 444.206 977.139 433.24 977.136 422.274 C977.133 412.146 977.133 402.017 977.134 391.888 C977.134 391.217 977.134 390.546 977.134 389.855 C977.134 387.133 977.135 384.41 977.135 381.687 C977.138 356.125 977.135 330.563 977.13 305.001 C977.125 282.27 977.126 259.539 977.13 236.808 C977.136 211.294 977.138 185.779 977.135 160.265 C977.134 157.548 977.134 154.83 977.134 152.112 C977.134 151.443 977.134 150.774 977.134 150.084 C977.132 139.959 977.134 129.835 977.136 119.71 C977.139 108.203 977.138 96.695 977.133 85.188 C977.13 79.31 977.129 73.433 977.133 67.555 C977.136 62.184 977.134 56.813 977.129 51.442 C977.128 49.49 977.128 47.538 977.131 45.585 C977.134 42.95 977.131 40.315 977.126 37.679 C977.128 36.905 977.131 36.132 977.133 35.335 C977.114 30.114 977.114 30.114 976 29 C973.977 28.902 971.951 28.876 969.925 28.876 C969.28 28.875 968.634 28.873 967.969 28.872 C965.774 28.869 963.579 28.873 961.384 28.877 C959.8 28.876 958.216 28.875 956.633 28.873 C952.24 28.87 947.847 28.874 943.454 28.878 C938.691 28.881 933.927 28.879 929.163 28.877 C920.801 28.875 912.439 28.877 904.076 28.881 C891.642 28.887 879.207 28.887 866.773 28.886 C845.859 28.885 824.946 28.888 804.032 28.894 C783.315 28.9 762.598 28.904 741.88 28.905 C740.594 28.905 739.307 28.905 737.982 28.905 C731.449 28.906 724.916 28.906 718.383 28.906 C705.097 28.907 691.811 28.908 678.524 28.909 C677.86 28.909 677.195 28.909 676.51 28.909 C644.153 28.912 611.797 28.918 579.44 28.925 C568.209 28.927 556.977 28.929 545.746 28.931 C545.398 28.931 545.398 28.931 543.635 28.932 C511.27 28.938 478.906 28.942 446.541 28.945 C444.424 28.945 442.307 28.945 440.19 28.945 C415.796 28.948 391.401 28.95 367.006 28.952 C260.671 28.962 154.335 28.982 48 29 Z " fill="#FEFEFE" transform="translate(0,0)"/>
<path d="M0 0 C28.597 -0.08 28.597 -0.08 42.818 -0.101 C50.48 -0.112 58.143 -0.126 65.805 -0.151 C72.529 -0.173 79.253 -0.185 85.977 -0.19 C88.531 -0.193 91.086 -0.201 93.64 -0.211 C129.128 -0.356 129.128 -0.356 142 5 C143.078 5.423 144.155 5.846 145.266 6.281 C157.579 11.292 167.521 17.679 177 27 C177.7 27.687 178.4 28.374 179.121 29.082 C196.171 46.996 202.764 71.85 202.184 96.031 C200.962 122.444 191.353 144.472 172.332 162.91 C149.031 183.791 120.343 186.372 90.5 186.125 C83.405 186.084 76.31 186.043 69 186 C69 208.77 69 231.54 69 255 C46.23 255 23.46 255 0 255 C0 208.14 0 161.28 0 113 C12.21 112.67 24.42 112.34 37 112 C41.382 108.714 41.908 107.371 43.625 102.375 C45.8 96.1 45.8 96.1 48 95 C48.762 97.287 49.524 99.573 50.286 101.86 C50.93 103.79 51.574 105.72 52.219 107.65 C54.97 115.88 54.97 115.88 56.285 119.996 C56.624 121.049 56.963 122.102 57.312 123.188 C57.597 124.089 57.882 124.99 58.176 125.918 C59 128 59 128 61 130 C63.688 130.27 66.291 130.087 69 130 C69.079 129.598 69.079 129.598 69.48 127.562 C71.103 119.385 72.787 111.222 74.5 103.062 C76.226 94.83 77.857 86.589 79.375 78.316 C80.153 74.186 81.05 70.094 82 66 C82.33 66 82.66 66 83 66 C83.116 66.717 83.232 67.433 83.351 68.171 C83.877 71.406 84.407 74.641 84.938 77.875 C85.029 78.439 85.029 78.439 85.49 81.293 C85.667 82.369 85.845 83.446 86.027 84.555 C86.19 85.55 86.352 86.545 86.519 87.57 C87 90 87 90 88 92 C88.337 93.765 88.636 95.537 88.914 97.312 C89.975 103.893 91.157 110.447 92.375 117 C92.591 118.165 92.807 119.329 93.03 120.529 C94.398 127.861 95.796 135.185 97.25 142.5 C97.331 142.912 97.331 142.912 97.744 144.996 C98.361 148.067 99.008 151.025 100 154 C106.75 155 106.75 155 109 155 C110.498 149.112 111.954 143.22 113.287 137.292 C115.129 129.176 117.306 121.179 119.625 113.188 C119.776 112.665 119.776 112.665 120.538 110.022 C120.827 109.039 121.116 108.056 121.414 107.043 C121.671 106.167 121.929 105.29 122.194 104.387 C122.957 102.128 123.877 100.1 125 98 C127.711 100.394 129.08 102.873 130.625 106.125 C132.917 110.917 132.917 110.917 134 112 C138.619 112.255 143.25 112.185 147.875 112.188 C149.181 112.2 150.487 112.212 151.832 112.225 C153.081 112.227 154.33 112.228 155.617 112.23 C156.768 112.235 157.919 112.239 159.105 112.243 C162 112 162 112 165 110 C165.375 107 165.375 107 165 104 C161.764 101.843 160.656 101.716 156.895 101.586 C155.912 101.547 154.929 101.509 153.916 101.469 C152.892 101.438 151.868 101.407 150.812 101.375 C149.777 101.336 148.741 101.298 147.674 101.258 C145.116 101.164 142.558 101.078 140 101 C136.591 94.506 133.682 87.933 131.056 81.092 C129.909 78.131 128.771 75.657 127 73 C124.062 72.562 124.062 72.562 121 73 C118.233 75.919 117.309 78.773 116.352 82.629 C116.071 83.738 115.79 84.848 115.5 85.991 C115.211 87.17 114.923 88.348 114.625 89.562 C114.012 91.997 113.399 94.432 112.785 96.867 C112.485 98.071 112.185 99.275 111.875 100.515 C110.644 105.416 109.358 110.303 108.062 115.188 C107.657 116.723 107.252 118.258 106.848 119.793 C106.708 120.322 106.708 120.322 106 123 C103.851 119.31 103.019 115.379 102.125 111.25 C101.954 110.474 101.784 109.697 101.608 108.897 C99.963 101.206 98.691 93.459 97.432 85.697 C96.143 77.752 94.644 69.88 93 62 C92.476 59.438 91.955 56.876 91.438 54.312 C91.189 53.085 90.94 51.858 90.684 50.594 C89.856 46.243 89.208 41.878 88.625 37.488 C87.929 34.718 86.85 33.147 85 31 C82.125 31.188 82.125 31.188 79 32 C77.133 35.63 76.38 39.447 75.566 43.426 C75.31 44.662 75.054 45.897 74.79 47.17 C74.529 48.434 74.268 49.698 74 51 C73.491 53.369 72.979 55.738 72.465 58.105 C72.213 59.274 71.961 60.443 71.701 61.646 C71.189 64.019 70.676 66.392 70.162 68.764 C68.813 75.031 67.565 81.301 66.445 87.613 C65.875 90.671 65.154 93.676 64.375 96.688 C64.245 97.195 64.245 97.195 63.586 99.762 C63.393 100.5 63.199 101.239 63 102 C60.749 98.624 59.449 95.155 58.062 91.375 C57.795 90.659 57.528 89.943 57.253 89.205 C55.833 85.372 54.513 81.533 53.312 77.625 C52 74 52 74 49 72 C45.812 72.375 45.812 72.375 43 73 C42.938 73.257 42.938 73.257 42.625 74.555 C40.132 83.81 35.961 92.298 32 101 C21.44 101 10.88 101 0 101 C0 67.67 0 34.34 0 0 Z " fill="#0E1D29" transform="translate(139,158)"/>
<path d="M0 0 C0.929 -0.004 1.859 -0.008 2.816 -0.012 C12.352 0.002 21.01 0.522 29.938 4.062 C30.711 4.368 31.484 4.674 32.281 4.989 C47.227 11.244 60.151 23.467 67.125 38.125 C76.169 60.91 76.808 84.576 68.25 107.625 C60.914 124.165 48.738 136.79 32.125 144.125 C11.422 151.989 -11.848 151.551 -32.188 142.875 C-42.199 138.349 -50.049 132.793 -56.875 124.125 C-57.375 123.557 -57.875 122.988 -58.391 122.402 C-72.382 105.65 -74.401 83.014 -72.875 62.125 C-70.482 43.579 -60.826 26.084 -46.461 14.113 C-32.281 3.737 -17.282 -0.071 0 0 Z " fill="#0F1D29" transform="translate(810.875,217.875)"/>
<path d="M0 0 C2.418 2.418 2.25 2.975 2.252 6.28 C2.257 7.179 2.262 8.077 2.268 9.003 C2.266 9.497 2.266 9.497 2.255 11.998 C2.259 13.038 2.263 14.077 2.266 15.147 C2.273 17.411 2.276 19.674 2.274 21.938 C2.273 25.523 2.286 29.109 2.303 32.695 C2.35 42.893 2.374 53.09 2.381 63.288 C2.386 69.522 2.41 75.755 2.446 81.988 C2.456 84.362 2.458 86.735 2.453 89.108 C2.446 92.438 2.463 95.767 2.486 99.096 C2.478 100.07 2.469 101.045 2.461 102.049 C2.537 108.408 3.679 113.512 7 119 C12.295 124.165 16.945 124.248 24.092 124.251 C32.303 124.121 39.663 122.422 46 117 C46.891 114.07 46.79 111.223 46.729 108.18 C46.734 107.29 46.74 106.4 46.746 105.483 C46.757 102.541 46.725 99.602 46.691 96.66 C46.688 94.615 46.686 92.57 46.687 90.525 C46.683 86.239 46.658 81.953 46.617 77.666 C46.566 72.174 46.555 66.682 46.557 61.189 C46.556 56.966 46.54 52.743 46.518 48.519 C46.509 46.494 46.503 44.469 46.501 42.444 C46.494 39.612 46.468 36.781 46.436 33.949 C46.437 33.113 46.439 32.277 46.44 31.416 C46.364 26.801 45.987 23.75 43 20 C40.738 18.637 40.738 18.637 38.312 17.688 C37.504 17.361 36.696 17.035 35.863 16.699 C35.248 16.468 34.634 16.238 34 16 C34 14.02 34 12.04 34 10 C41.034 8.129 48.018 6.596 55.207 5.461 C60.333 4.615 65.374 3.394 70.422 2.172 C71.644 1.888 72.866 1.605 74.125 1.312 C75.262 1.041 76.399 0.769 77.57 0.488 C81.317 -0.045 84.305 0.24 88 1 C89.642 2.642 89.128 4.523 89.131 6.787 C89.133 7.305 89.133 7.305 89.143 9.927 C89.143 10.5 89.143 10.5 89.142 13.401 C89.145 14.601 89.149 15.801 89.152 17.037 C89.16 19.654 89.165 22.27 89.169 24.887 C89.175 29.026 89.191 33.165 89.21 37.305 C89.216 38.721 89.223 40.138 89.229 41.554 C89.232 42.263 89.235 42.973 89.239 43.704 C89.281 53.344 89.314 62.984 89.326 72.624 C89.334 79.121 89.357 85.619 89.395 92.116 C89.415 95.555 89.427 98.993 89.422 102.432 C89.417 106.272 89.442 110.112 89.47 113.952 C89.463 115.088 89.457 116.225 89.45 117.395 C89.523 123.554 89.816 127.342 94 132 C96.141 133.461 96.141 133.461 98.25 134.375 C98.956 134.692 99.663 135.009 100.391 135.336 C100.922 135.555 101.453 135.774 102 136 C102 137.98 102 139.96 102 142 C85.046 143.738 68.063 145.345 51 145 C48.821 138.755 47.87 133.637 48 127 C47.394 127.508 46.788 128.016 46.164 128.539 C31.256 140.787 15.715 148.6 -4 147 C-16.96 144.291 -26.684 138.001 -34 127 C-39.783 116.398 -39.292 104.17 -39.305 92.433 C-39.309 89.675 -39.325 86.918 -39.346 84.16 C-39.401 76.327 -39.432 68.494 -39.456 60.662 C-39.472 55.851 -39.502 51.04 -39.541 46.229 C-39.553 44.403 -39.559 42.576 -39.559 40.749 C-39.559 38.2 -39.577 35.652 -39.599 33.104 C-39.595 32.354 -39.59 31.604 -39.585 30.831 C-39.647 26.379 -40.265 23.543 -43 20 C-46.239 17.613 -49.03 16.567 -53 16 C-53 13.69 -53 11.38 -53 9 C-48.515 7.792 -44.089 6.818 -39.5 6.094 C-31.952 4.859 -24.482 3.281 -17.004 1.68 C-11.235 0.488 -5.895 -0.48 0 0 Z " fill="#101E2B" transform="translate(410,220)"/>
<path d="M0 0 C2 2 2 2 2.235 5.045 C2.231 5.705 2.231 5.705 2.214 9.045 C2.213 9.412 2.213 9.412 2.21 11.268 C2.204 13.74 2.184 16.212 2.164 18.684 C2.156 20.451 2.15 22.218 2.145 23.985 C2.132 27.799 2.113 31.613 2.089 35.426 C2.053 41.461 2.033 47.496 2.017 53.531 C1.969 70.696 1.897 87.86 1.808 105.024 C1.759 114.498 1.724 123.972 1.705 133.445 C1.692 139.439 1.661 145.432 1.616 151.426 C1.593 155.166 1.586 158.906 1.584 162.647 C1.58 164.375 1.569 166.102 1.55 167.83 C1.365 185.705 1.365 185.705 6 193 C9.142 195.684 11.894 197.368 16 198 C16 200.31 16 202.62 16 205 C-7.43 205 -30.86 205 -55 205 C-55 202.69 -55 200.38 -55 198 C-54.385 197.758 -53.77 197.515 -53.137 197.266 C-44.932 193.863 -44.932 193.863 -43 190 C-41.874 186.502 -41.872 183.214 -41.866 179.554 C-41.864 178.909 -41.862 178.264 -41.859 177.6 C-41.853 175.44 -41.854 173.281 -41.855 171.121 C-41.852 169.572 -41.848 168.023 -41.845 166.474 C-41.836 162.267 -41.833 158.061 -41.833 153.854 C-41.832 150.343 -41.828 146.831 -41.825 143.32 C-41.816 135.036 -41.814 126.752 -41.815 118.468 C-41.815 109.921 -41.805 101.375 -41.789 92.828 C-41.776 85.49 -41.771 78.153 -41.771 70.815 C-41.771 66.432 -41.769 62.05 -41.758 57.667 C-41.748 53.546 -41.748 49.425 -41.755 45.304 C-41.757 43.792 -41.754 42.28 -41.748 40.768 C-41.74 38.702 -41.745 36.638 -41.753 34.573 C-41.752 33.995 -41.752 33.995 -41.751 31.072 C-42.004 27.946 -42.574 25.781 -44 23 C-47.391 20.457 -50.964 19.22 -55 18 C-55 16.02 -55 14.04 -55 12 C-44.689 9.058 -34.372 6.301 -23.918 3.914 C-20.401 3.108 -16.922 2.186 -13.438 1.25 C-8.78 0.078 -4.792 -0.444 0 0 Z " fill="#101E2A" transform="translate(578,158)"/>
<path d="M0 0 C1.387 -0.011 2.775 -0.032 4.162 -0.062 C16.639 -0.33 27.593 1.988 39.111 6.983 C40.086 7.399 41.062 7.815 42.068 8.244 C44.298 9.295 44.298 9.295 45.298 10.295 C45.401 13.014 45.439 15.701 45.423 18.42 C45.421 19.222 45.419 20.025 45.417 20.851 C45.364 28.361 44.916 35.812 44.298 43.295 C41.638 43.854 41.638 43.854 38.298 43.295 C35.977 40.608 34.477 37.504 32.861 34.358 C31.899 32.604 30.933 30.853 29.962 29.104 C29.502 28.266 29.042 27.428 28.569 26.564 C24.124 18.627 19.303 12.84 10.298 10.295 C2.032 9.243 -5.638 9.581 -12.702 14.295 C-17.283 17.907 -20.167 21.483 -20.987 27.326 C-21.404 33.566 -19.753 37.584 -15.702 42.295 C-7.858 50.495 4.743 53.156 15.236 56.545 C30.912 61.633 46.236 67.97 54.298 83.295 C54.637 83.935 54.976 84.574 55.325 85.233 C59.296 94.6 58.816 108.621 55.337 118.065 C49.787 129.979 41.936 139.254 29.382 144.023 C2.555 153.361 -24.818 150.846 -50.202 138.608 C-52.702 137.295 -52.702 137.295 -53.702 136.295 C-53.79 133.629 -53.817 130.989 -53.8 128.323 C-53.798 127.525 -53.797 126.727 -53.795 125.905 C-53.79 123.348 -53.777 120.79 -53.764 118.233 C-53.759 116.503 -53.755 114.773 -53.751 113.043 C-53.74 108.794 -53.722 104.545 -53.702 100.295 C-50.405 100.014 -50.405 100.014 -46.702 100.295 C-44.841 102.172 -44.841 102.172 -43.456 104.791 C-42.928 105.743 -42.4 106.695 -41.856 107.676 C-41.331 108.685 -40.806 109.693 -40.264 110.733 C-34.872 120.805 -29.397 130.33 -18.702 135.295 C-17.526 135.873 -16.351 136.45 -15.139 137.045 C-7.145 139.876 2.647 139.341 10.47 136.198 C15.434 133.747 18.288 130.683 20.568 125.705 C22.354 119.812 22.556 112.949 19.736 107.358 C14.779 101.13 8.651 98.328 1.361 95.67 C0.601 95.384 -0.159 95.098 -0.942 94.803 C-3.192 93.958 -5.447 93.126 -7.702 92.295 C-9.093 91.773 -10.483 91.249 -11.874 90.725 C-14.222 89.842 -16.573 88.988 -18.94 88.155 C-28.651 84.65 -37.811 80.2 -44.702 72.295 C-45.527 71.47 -46.352 70.645 -47.202 69.795 C-53.847 61.483 -55.66 51.369 -55.12 41.03 C-53.902 30.146 -47.6 20.386 -39.737 12.92 C-32.662 7.271 -24.215 4.099 -15.702 1.295 C-10.647 -0.39 -5.291 0.03 0 0 Z " fill="#0F1C28" transform="translate(664.701904296875,217.704833984375)"/>
<path d="M0 0 C8.089 5.636 12.335 14.042 14.625 23.562 C16.795 35.743 17.762 47.496 17.698 59.855 C17.688 62.31 17.698 64.764 17.711 67.219 C17.728 85.077 17.116 107.338 4.438 121.312 C0.864 124.585 -2.639 126.969 -7.562 127.312 C-8.293 127.374 -9.024 127.436 -9.777 127.5 C-16.151 127.814 -21.198 126.875 -26.562 123.312 C-36.127 114.583 -39.665 102.774 -40.75 90.188 C-40.789 89.739 -40.789 89.739 -40.987 87.47 C-41.676 78.189 -41.803 68.892 -41.859 59.589 C-41.87 57.846 -41.884 56.103 -41.904 54.361 C-42.081 36.051 -41.104 15.942 -27.582 2.094 C-19.992 -4.601 -8.638 -4.958 0 0 Z " fill="#FCFCFC" transform="translate(823.5625,229.6875)"/>
<path d="M0 0 C337.92 0 675.84 0 1024 0 C1024 10.23 1024 20.46 1024 31 C1014.76 31 1005.52 31 996 31 C996 190.39 996 349.78 996 514 C1005.24 514 1014.48 514 1024 514 C1024 514.33 1024 514.66 1024 515 C1013.77 515 1003.54 515 993 515 C993.165 435.14 993.165 435.14 994 31 C990.04 31 986.08 31 982 31 C982 30.34 982 29.68 982 29 C985.96 29 989.92 29 994 29 C994 19.76 994 10.52 994 1 C988.39 1 982.78 1 977 1 C977 8.59 977 16.18 977 24 C976.34 24 975.68 24 975 24 C975 16.41 975 8.82 975 1 C669.42 1 363.84 1 49 1 C49 8.26 49 15.52 49 23 C48.67 23 48.34 23 48 23 C48 15.74 48 8.48 48 1 C42.06 1 36.12 1 30 1 C30 10.24 30 19.48 30 29 C33.96 29 37.92 29 42 29 C42 29.66 42 30.32 42 31 C38.04 31 34.08 31 30 31 C30 190.39 30 349.78 30 514 C33.63 514 37.26 514 41 514 C41 514.33 41 514.66 41 515 C27.8 515 14.6 515 1 515 C1 529.52 1 544.04 1 559 C0.67 559 0.34 559 0 559 C0 374.53 0 190.06 0 0 Z M1 31 C1 190.39 1 349.78 1 514 C9.91 514 18.82 514 28 514 C28 354.61 28 195.22 28 31 C19.09 31 10.18 31 1 31 Z " fill="#DADADA" transform="translate(0,0)"/>
<path d="M0 0 C233.115 -0.04 233.115 -0.04 322.257 -0.048 C346.275 -0.05 370.293 -0.052 394.311 -0.055 C396.424 -0.055 398.537 -0.055 400.65 -0.055 C433.015 -0.058 465.381 -0.062 497.746 -0.069 C498.442 -0.069 499.139 -0.069 499.856 -0.069 C511.084 -0.071 522.313 -0.074 533.541 -0.076 C565.869 -0.082 598.197 -0.089 630.524 -0.091 C630.857 -0.091 630.857 -0.091 632.537 -0.091 C646.464 -0.092 660.391 -0.093 674.317 -0.094 C680.838 -0.094 687.359 -0.095 693.88 -0.095 C695.164 -0.095 696.447 -0.095 697.77 -0.095 C718.475 -0.096 739.18 -0.101 759.886 -0.107 C780.674 -0.113 801.463 -0.115 822.252 -0.114 C834.621 -0.113 846.989 -0.115 859.357 -0.121 C867.603 -0.125 875.849 -0.125 884.095 -0.122 C888.803 -0.12 893.512 -0.12 898.221 -0.125 C902.495 -0.129 906.769 -0.128 911.042 -0.124 C912.588 -0.123 914.134 -0.124 915.68 -0.127 C917.762 -0.131 919.844 -0.128 921.925 -0.124 C923.083 -0.124 924.241 -0.125 925.434 -0.125 C928 -0 928 -0 929 1 C929.1 3.568 929.134 6.11 929.126 8.679 C929.127 9.497 929.129 10.315 929.13 11.158 C929.134 13.935 929.13 16.711 929.127 19.488 C929.128 21.485 929.13 23.481 929.132 25.478 C929.136 30.992 929.134 36.506 929.131 42.02 C929.128 47.956 929.132 53.892 929.135 59.828 C929.139 70.794 929.139 81.76 929.136 92.726 C929.133 102.854 929.133 112.983 929.134 123.112 C929.134 123.447 929.134 123.447 929.134 125.145 C929.134 127.867 929.135 130.59 929.135 133.313 C929.138 158.875 929.135 184.437 929.13 209.999 C929.125 232.73 929.126 255.461 929.13 278.192 C929.136 303.706 929.138 329.221 929.135 354.735 C929.134 357.452 929.134 360.17 929.134 362.888 C929.134 363.557 929.134 364.226 929.134 364.916 C929.132 375.041 929.134 385.165 929.136 395.29 C929.139 406.797 929.138 418.305 929.133 429.812 C929.13 435.69 929.129 441.567 929.133 447.445 C929.136 452.816 929.134 458.187 929.129 463.558 C929.128 465.51 929.128 467.462 929.131 469.415 C929.134 472.05 929.131 474.685 929.126 477.321 C929.128 478.095 929.131 478.868 929.133 479.665 C929.114 484.886 929.114 484.886 928 486 C925.977 486.098 923.951 486.124 921.925 486.124 C921.28 486.125 920.634 486.127 919.969 486.128 C917.774 486.131 915.579 486.127 913.384 486.123 C911.8 486.124 910.216 486.125 908.633 486.127 C904.24 486.13 899.847 486.126 895.454 486.122 C890.691 486.119 885.927 486.121 881.163 486.123 C872.801 486.125 864.439 486.123 856.076 486.119 C843.642 486.113 831.207 486.113 818.773 486.114 C797.859 486.115 776.946 486.112 756.032 486.106 C735.315 486.1 714.598 486.096 693.88 486.095 C692.594 486.095 691.307 486.095 689.982 486.095 C683.449 486.094 676.916 486.094 670.383 486.094 C657.097 486.093 643.811 486.092 630.524 486.091 C630.192 486.091 630.192 486.091 628.51 486.091 C596.153 486.088 563.797 486.082 531.44 486.075 C520.209 486.073 508.977 486.071 497.746 486.069 C497.049 486.069 496.353 486.068 495.635 486.068 C463.27 486.062 430.906 486.058 398.541 486.055 C396.424 486.055 394.307 486.055 392.19 486.055 C367.796 486.052 343.401 486.05 319.006 486.048 C212.671 486.038 106.335 486.018 0 486 C0 325.62 0 165.24 0 0 Z M1 2 C1 161.39 1 320.78 1 485 C306.58 485 612.16 485 927 485 C927 325.61 927 166.22 927 2 C621.42 2 315.84 2 1 2 Z " fill="#DCDCDC" transform="translate(48,29)"/>
<path d="M0 0 C9.9 0 19.8 0 30 0 C30 9.9 30 19.8 30 30 C20.76 30 11.52 30 2 30 C2 189.39 2 348.78 2 513 C11.24 513 20.48 513 30 513 C30 513.33 30 513.66 30 514 C19.77 514 9.54 514 -1 514 C-0.67 354.28 -0.34 194.56 0 30 C-3.96 30 -7.92 30 -12 30 C-12 29.34 -12 28.68 -12 28 C-8.04 28 -4.08 28 0 28 C0 18.76 0 9.52 0 0 Z " fill="#E5E5E5" transform="translate(994,1)"/>
<path d="M0 0 C0.66 0 1.32 0 2 0 C2 11.55 2 23.1 2 35 C1.34 35 0.68 35 0 35 C0 26.75 0 18.5 0 10 C-305.58 10 -611.16 10 -926 10 C-926 18.25 -926 26.5 -926 35 C-926.33 35 -926.66 35 -927 35 C-927 23.78 -927 12.56 -927 1 C-926.67 1 -926.34 1 -926 1 C-926 3.64 -926 6.28 -926 9 C-620.42 9 -314.84 9 0 9 C0 6.03 0 3.06 0 0 Z " fill="#DADADA" transform="translate(975,524)"/>
<path d="M0 0 C9.24 0 18.48 0 28 0 C28 9.24 28 18.48 28 28 C18.76 28 9.52 28 0 28 C0 18.76 0 9.52 0 0 Z " fill="#FEFEFE" transform="translate(996,1)"/>
<path d="M0 0 C8.91 0 17.82 0 27 0 C27 9.24 27 18.48 27 28 C18.09 28 9.18 28 0 28 C0 18.76 0 9.52 0 0 Z " fill="#FEFEFE" transform="translate(1,1)"/>
<path d="M0 0 C0.66 0.33 1.32 0.66 2 1 C2 62.05 2 123.1 2 186 C0.68 185.34 -0.64 184.68 -2 184 C-2 124.6 -2 65.2 -2 4 C-2.66 3.67 -3.32 3.34 -4 3 C-3.34 3 -2.68 3 -2 3 C-1.67 2.34 -1.34 1.68 -1 1 C-0.67 0.67 -0.34 0.34 0 0 Z " fill="#040C14" transform="translate(578,159)"/>
<path d="M0 0 C0.99 0 1.98 0 3 0 C3.861 2.985 4.129 5.648 4.14 8.751 C4.146 9.703 4.152 10.655 4.158 11.635 C4.159 12.673 4.16 13.711 4.161 14.78 C4.166 15.877 4.171 16.975 4.176 18.107 C4.191 21.739 4.198 25.371 4.203 29.004 C4.209 31.524 4.215 34.045 4.22 36.566 C4.23 41.174 4.236 45.782 4.239 50.39 C4.243 57.174 4.261 63.958 4.29 70.742 C4.314 76.619 4.322 82.497 4.324 88.375 C4.327 90.876 4.335 93.377 4.348 95.878 C4.365 99.369 4.363 102.859 4.356 106.35 C4.366 107.389 4.375 108.429 4.384 109.5 C4.379 110.449 4.373 111.398 4.367 112.376 C4.369 113.202 4.37 114.027 4.372 114.877 C4 117 4 117 1 120 C1 112.41 1 104.82 1 97 C0.67 97 0.34 97 0 97 C0 64.99 0 32.98 0 0 Z " fill="#07121B" transform="translate(494,224)"/>
<path d="M0 0 C0.536 0.743 1.072 1.485 1.625 2.25 C4.88 6.019 8.272 8.424 13 10 C13 11.98 13 13.96 13 16 C0.287 17.408 -12.207 18.302 -25 18 C-23.225 15.72 -22.37 15.05 -19.456 14.659 C-18.467 14.675 -17.477 14.691 -16.457 14.707 C-15.92 14.712 -15.92 14.712 -13.205 14.736 C-12.086 14.761 -10.966 14.787 -9.812 14.812 C-8.681 14.826 -7.55 14.84 -6.385 14.854 C-3.589 14.889 -0.795 14.938 2 15 C2.054 13.542 2.093 12.084 2.125 10.625 C2.148 9.813 2.171 9.001 2.195 8.164 C2 6 2 6 0 4 C0 2.68 0 1.36 0 0 Z " fill="#0C1622" transform="translate(499,346)"/>
<path d="M0 0 C0.33 0 0.66 0 1 0 C0.33 7.554 -1.612 14.686 -3.562 22 C-3.892 23.252 -4.221 24.503 -4.561 25.793 C-5.369 28.863 -6.182 31.932 -7 35 C-8.965 31.293 -9.804 27.814 -10.625 23.688 C-10.885 22.413 -11.146 21.138 -11.414 19.824 C-11.978 16.145 -12.106 12.714 -12 9 C-11.67 9 -11.34 9 -11 9 C-10.67 9.99 -10.34 10.98 -10 12 C-9.34 10.68 -8.68 9.36 -8 8 C-7.34 9.32 -6.68 10.64 -6 12 C-5.01 11.67 -4.02 11.34 -3 11 C-2.051 8.496 -2.051 8.496 -1.312 5.438 C-1.061 4.426 -0.81 3.414 -0.551 2.371 C-0.369 1.589 -0.187 0.806 0 0 Z " fill="#091119" transform="translate(252,246)"/>
<path d="M0 0 C0.33 0 0.66 0 1 0 C1.506 3.061 2.004 6.124 2.5 9.188 C2.643 10.052 2.786 10.916 2.934 11.807 C3.593 15.905 4.207 19.832 4 24 C3.34 23.01 2.68 22.02 2 21 C1.67 22.65 1.34 24.3 1 26 C0.34 26 -0.32 26 -1 26 C-1.33 26.99 -1.66 27.98 -2 29 C-2.66 29 -3.32 29 -4 29 C-4.33 29.66 -4.66 30.32 -5 31 C-4.224 20.448 -2.364 10.3 0 0 Z " fill="#080F17" transform="translate(221,224)"/>
<path d="M0 0 C0.33 31.68 0.66 63.36 1 96 C0.67 96 0.34 96 0 96 C-1.082 91.603 -1.158 87.302 -1.174 82.801 C-1.177 82.395 -1.177 82.395 -1.194 80.34 C-1.208 78.583 -1.22 76.825 -1.23 75.068 C-1.246 72.285 -1.269 69.503 -1.295 66.72 C-1.365 58.81 -1.426 50.901 -1.477 42.991 C-1.509 38.148 -1.55 33.306 -1.597 28.463 C-1.613 26.619 -1.625 24.776 -1.634 22.932 C-1.646 20.354 -1.67 17.777 -1.697 15.199 C-1.697 14.819 -1.697 14.819 -1.699 12.897 C-1.755 8.833 -2.193 5.661 -4 2 C-1 0 -1 0 0 0 Z " fill="#000106" transform="translate(372,238)"/>
<path d="M0 0 C23.43 0 46.86 0 71 0 C71 0.33 71 0.66 71 1 C70.698 1.03 70.698 1.03 69.172 1.184 C68.373 1.267 67.573 1.351 66.75 1.438 C65.961 1.519 65.172 1.6 64.359 1.684 C62.176 1.976 60.123 2.421 58 3 C58 2.34 58 1.68 58 1 C57.34 1.66 56.68 2.32 56 3 C52.375 3.125 52.375 3.125 49 3 C49 2.34 49 1.68 49 1 C45.37 1 41.74 1 38 1 C38 1.66 38 2.32 38 3 C37.01 3 36.02 3 35 3 C35 2.34 35 1.68 35 1 C25.76 1.33 16.52 1.66 7 2 C7 2.33 7 2.66 7 3 C4.69 3 2.38 3 0 3 C0 2.01 0 1.02 0 0 Z " fill="#E9EEF2" transform="translate(523,363)"/>
<path d="M0 0 C0 0.66 0 1.32 0 2 C0.99 2.33 1.98 2.66 3 3 C2.34 3.66 1.68 4.32 1 5 C0.602 6.988 0.262 8.989 0 11 C-3.63 10.01 -7.26 9.02 -11 8 C-11 5.69 -11 3.38 -11 1 C-7.266 0.121 -3.832 -0.089 0 0 Z " fill="#0B141D" transform="translate(368,228)"/>
<path d="M0 0 C0.33 0 0.66 0 1 0 C1.015 0.859 1.029 1.719 1.044 2.604 C1.352 18.893 1.838 34.88 4.652 50.969 C5.166 53.971 5.583 56.983 6 60 C3.997 56.996 3.507 55.29 2.875 51.812 C2.707 50.911 2.54 50.01 2.367 49.082 C2.246 48.395 2.125 47.708 2 47 C1.34 47.99 0.68 48.98 0 50 C-0.973 47.08 -1.095 45.371 -1.022 42.345 C-1.002 41.404 -0.982 40.463 -0.961 39.494 C-0.934 38.482 -0.907 37.469 -0.879 36.426 C-0.855 35.387 -0.832 34.348 -0.807 33.277 C-0.731 29.956 -0.647 26.634 -0.562 23.312 C-0.509 21.062 -0.457 18.811 -0.404 16.561 C-0.275 11.04 -0.14 5.52 0 0 Z " fill="#050A11" transform="translate(780,276)"/>
<path d="M0 0 C0.33 0 0.66 0 1 0 C1.826 12.351 2.124 24.622 2 37 C1.34 37 0.68 37 0 37 C-4.417 29.464 -1.83 18.641 -1 10.312 C-0.905 9.313 -0.809 8.313 -0.711 7.283 C-0.479 4.855 -0.242 2.427 0 0 Z " fill="#050D15" transform="translate(842,289)"/>
<path d="M0 0 C0.953 -0.001 1.905 -0.003 2.887 -0.004 C3.875 -0 4.864 0.004 5.883 0.008 C6.864 0.004 7.845 0 8.855 -0.004 C13.684 0.003 18.262 0.119 23.008 1.133 C22.678 1.793 22.348 2.453 22.008 3.133 C18.154 3.331 14.3 3.515 10.445 3.695 C9.359 3.751 8.273 3.807 7.154 3.865 C1.609 4.118 -3.534 4.19 -8.992 3.133 C-8.992 2.473 -8.992 1.813 -8.992 1.133 C-5.928 0.24 -3.187 0.004 0 0 Z " fill="#040A11" transform="translate(804.9921875,217.8671875)"/>
<path d="M0 0 C0.33 0 0.66 0 1 0 C3.642 10.989 2.099 23.054 0 34 C-0.33 34 -0.66 34 -1 34 C-1.199 30.188 -1.382 26.375 -1.562 22.562 C-1.619 21.493 -1.675 20.424 -1.732 19.322 C-2.019 13.074 -1.966 7.188 -1 1 C-0.67 0.67 -0.34 0.34 0 0 Z " fill="#0B121A" transform="translate(339,237)"/>
<path d="M0 0 C0.99 2.31 1.98 4.62 3 7 C1.69 8.17 0.377 9.336 -0.938 10.5 C-1.668 11.15 -2.399 11.799 -3.152 12.469 C-5 14 -5 14 -6 14 C-6.089 10.801 -5.911 8.073 -5 5 C-5.99 4.34 -6.98 3.68 -8 3 C-3.375 0 -3.375 0 0 0 Z " fill="#0C141D" transform="translate(454,340)"/>
<path d="M0 0 C6.27 0 12.54 0 19 0 C18.34 1.65 17.68 3.3 17 5 C12.05 5 7.1 5 2 5 C2.33 4.01 2.66 3.02 3 2 C2.01 1.34 1.02 0.68 0 0 Z " fill="#081118" transform="translate(802,356)"/>
<path d="M0 0 C0.99 0.33 1.98 0.66 3 1 C3 5.62 3 10.24 3 15 C1.68 14.34 0.36 13.68 -1 13 C-1.33 15.31 -1.66 17.62 -2 20 C-2.33 20 -2.66 20 -3 20 C-3.355 12.785 -2.159 6.876 0 0 Z " fill="#0A131C" transform="translate(742,265)"/>
<path d="M0 0 C1.32 0 2.64 0 4 0 C4.027 2.292 4.046 4.583 4.062 6.875 C4.074 8.151 4.086 9.427 4.098 10.742 C4 14 4 14 3 16 C2.774 17.704 2.591 19.413 2.438 21.125 C2.354 22.035 2.27 22.945 2.184 23.883 C2.123 24.581 2.062 25.28 2 26 C1.67 26 1.34 26 1 26 C0.343 17.312 -0.163 8.718 0 0 Z " fill="#040C12" transform="translate(840,262)"/>
<path d="M0 0 C1.281 3.934 1.184 7.909 1.188 12 C1.2 12.712 1.212 13.423 1.225 14.156 C1.235 17.934 1.11 20.797 -1 24 C-1.99 24 -2.98 24 -4 24 C-4.147 19.01 -3.663 14.615 -2.562 9.75 C-2.296 8.549 -2.029 7.347 -1.754 6.109 C-1 3 -1 3 0 0 Z " fill="#0B121A" transform="translate(215,256)"/>
<path d="M0 0 C0.365 0.003 0.365 0.003 2.213 0.016 C7.145 0.086 11.93 0.564 16.812 1.25 C16.812 1.58 16.812 1.91 16.812 2.25 C7.47 3.38 -1.796 3.349 -11.188 3.25 C-8.458 -0.85 -4.42 -0.122 0 0 Z " fill="#070D14" transform="translate(485.1875,360.75)"/>
<path d="M0 0 C0 0.33 0 0.66 0 1 C-1.98 1.33 -3.96 1.66 -6 2 C-5.67 2.99 -5.34 3.98 -5 5 C-7.27 5.222 -9.541 5.427 -11.812 5.625 C-12.445 5.683 -12.445 5.683 -15.645 5.977 C-19 6 -19 6 -22 4 C-14.844 0.768 -7.788 -0.283 0 0 Z " fill="#0A1018" transform="translate(578,158)"/>
<path d="M0 0 C0.916 2.994 1.017 5.176 0.512 8.258 C0.382 9.048 0.253 9.838 0.119 10.652 C-0.023 11.468 -0.166 12.284 -0.312 13.125 C-0.443 13.949 -0.574 14.772 -0.709 15.621 C-0.842 16.409 -0.976 17.196 -1.113 18.008 C-1.174 18.367 -1.174 18.367 -1.482 20.184 C-2 22 -2 22 -4 24 C-4.33 17.73 -4.66 11.46 -5 5 C-4.34 4.67 -3.68 4.34 -3 4 C-2.67 4.99 -2.34 5.98 -2 7 C-1.34 4.69 -0.68 2.38 0 0 Z " fill="#0F161D" transform="translate(208,223)"/>
<path d="M0 0 C1 4.75 1 4.75 1 7 C-2.623 8.208 -3.641 7.543 -7 6 C-7 4.02 -7 2.04 -7 0 C-3.867 -1.044 -3.01 -0.934 0 0 Z " fill="#172129" transform="translate(451,230)"/>
<path d="M0 0 C0.33 0 0.66 0 1 0 C1.366 1.727 1.717 3.457 2.062 5.188 C2.26 6.15 2.457 7.113 2.66 8.105 C3.004 11.036 2.742 13.163 2 16 C0.35 16.33 -1.3 16.66 -3 17 C-2.369 11.219 -1.348 5.656 0 0 Z " fill="#14181D" transform="translate(221,224)"/>
<path d="M0 0 C0.784 0.005 1.567 0.009 2.375 0.014 C4.292 0.025 6.208 0.043 8.125 0.062 C7.795 1.053 7.465 2.042 7.125 3.062 C4.396 3.09 1.667 3.109 -1.062 3.125 C-1.831 3.133 -2.6 3.142 -3.393 3.15 C-7.36 3.167 -11.001 3.049 -14.875 2.062 C-14.875 1.732 -14.875 1.403 -14.875 1.062 C-9.859 0.045 -5.089 -0.056 0 0 Z " fill="#030911" transform="translate(667.875,217.9375)"/>
<path d="M0 0 C2.094 3.416 2.179 5.897 1.977 9.859 C1.951 10.417 1.951 10.417 1.82 13.238 C1.756 14.397 1.691 15.556 1.625 16.75 C1.568 17.924 1.512 19.099 1.453 20.309 C1.312 23.206 1.16 26.103 1 29 C0.67 29 0.34 29 0 29 C-0.33 26.03 -0.66 23.06 -1 20 C-1.33 20 -1.66 20 -2 20 C-1.86 17.041 -1.713 14.083 -1.562 11.125 C-1.523 10.283 -1.484 9.441 -1.443 8.574 C-1.401 7.769 -1.36 6.963 -1.316 6.133 C-1.28 5.389 -1.243 4.646 -1.205 3.879 C-1 2 -1 2 0 0 Z " fill="#0C1620" transform="translate(843,276)"/>
<path d="M0 0 C1.882 3.263 2.585 6.263 3 10 C2.67 10.33 2.34 10.66 2 11 C2 12.32 2 13.64 2 15 C0.68 14.67 -0.64 14.34 -2 14 C-1.67 12.35 -1.34 10.7 -1 9 C-1.66 9 -2.32 9 -3 9 C-2.692 7.686 -2.378 6.374 -2.062 5.062 C-1.888 4.332 -1.714 3.601 -1.535 2.848 C-1 1 -1 1 0 0 Z " fill="#0F1216" transform="translate(186,253)"/>
<path d="M0 0 C2 3 2 3 1.875 5.625 C0.742 9.996 -0.555 14.171 -3 18 C-5.75 19.062 -5.75 19.062 -8 19 C-7.67 17.845 -7.67 17.845 -6 12 C-4.68 12 -3.36 12 -2 12 C-1.939 11.301 -1.879 10.603 -1.816 9.883 C-1.733 8.973 -1.649 8.063 -1.562 7.125 C-1.481 6.22 -1.4 5.315 -1.316 4.383 C-1 2 -1 2 0 0 Z " fill="#09121A" transform="translate(175,239)"/>
<path d="M0 0 C0.33 0 0.66 0 1 0 C1 2.64 1 5.28 1 8 C-0.65 8 -2.3 8 -4 8 C-4 8.66 -4 9.32 -4 10 C-4.99 9.67 -5.98 9.34 -7 9 C-9.393 8.774 -11.789 8.592 -14.188 8.438 C-15.46 8.354 -16.732 8.27 -18.043 8.184 C-18.531 8.153 -18.531 8.153 -21 8 C-21 7.67 -21 7.34 -21 7 C-17.535 6.835 -17.535 6.835 0 6 C0 4.02 0 2.04 0 0 Z " fill="#B3B6B8" transform="translate(512,356)"/>
<path d="M0 0 C0.33 0 0.66 0 1 0 C1.33 1.65 1.66 3.3 2 5 C9.26 5 16.52 5 24 5 C24 5.33 24 5.66 24 6 C20.252 6.394 16.501 6.762 12.75 7.125 C11.687 7.237 10.623 7.349 9.527 7.465 C8.503 7.562 7.478 7.658 6.422 7.758 C5.479 7.852 4.537 7.946 3.565 8.043 C0.802 7.997 -0.666 7.426 -3 6 C-2.01 6 -1.02 6 0 6 C0 4.02 0 2.04 0 0 Z " fill="#B4B8BD" transform="translate(459,359)"/>
<path d="M0 0 C0.99 0.165 0.99 0.165 6 1 C3.359 4.619 1.026 6.987 -3 9 C-3.66 9 -4.32 9 -5 9 C-5.33 8.01 -5.66 7.02 -6 6 C-5.196 5.752 -4.391 5.505 -3.562 5.25 C-1 4 -1 4 -0.188 1.875 C-0.126 1.256 -0.064 0.637 0 0 Z " fill="#0D151B" transform="translate(704,349)"/>
<path d="M0 0 C0.33 0 0.66 0 1 0 C1 4.95 1 9.9 1 15 C-0.32 14.67 -1.64 14.34 -3 14 C-2.588 9.029 -2.204 4.555 0 0 Z " fill="#090F17" transform="translate(255,288)"/>
<path d="M0 0 C0.33 0 0.66 0 1 0 C1 5.61 1 11.22 1 17 C0.34 17 -0.32 17 -1 17 C-2.173 13.481 -1.927 11.061 -1.625 7.375 C-1.535 6.207 -1.445 5.039 -1.352 3.836 C-1 1 -1 1 0 0 Z " fill="#071119" transform="translate(232,195)"/>
<path d="M0 0 C3.995 0.615 6.775 2.655 10 5 C10 5.33 10 5.66 10 6 C6.7 6 3.4 6 0 6 C0 4.02 0 2.04 0 0 Z " fill="#0C141E" transform="translate(848,227)"/>
<path d="M0 0 C5.28 0 10.56 0 16 0 C12.442 3.558 7.353 3.952 2.5 4.125 C1.675 4.084 0.85 4.043 0 4 C1.32 3.67 2.64 3.34 4 3 C4 2.34 4 1.68 4 1 C2.68 0.67 1.36 0.34 0 0 Z " fill="#070E17" transform="translate(263,338)"/>
<path d="M0 0 C0.33 0 0.66 0 1 0 C2.13 5.023 1.779 8.979 1 14 C-0.32 14 -1.64 14 -3 14 C-2.69 12.229 -2.377 10.458 -2.062 8.688 C-1.888 7.701 -1.714 6.715 -1.535 5.699 C-1 3 -1 3 0 0 Z " fill="#05121D" transform="translate(261,265)"/>
<path d="M0 0 C2.64 0 5.28 0 8 0 C7.67 0.66 7.34 1.32 7 2 C9.296 3.148 11.077 3.308 13.625 3.562 C14.442 3.646 15.26 3.73 16.102 3.816 C16.728 3.877 17.355 3.938 18 4 C18 4.33 18 4.66 18 5 C11.596 5.236 6.154 4.823 0 3 C0 2.01 0 1.02 0 0 Z " fill="#070D14" transform="translate(636,361)"/>
<path d="M0 0 C5.875 0.875 5.875 0.875 7 2 C7.073 4.53 7.092 7.033 7.062 9.562 C7.058 10.273 7.053 10.984 7.049 11.717 C7.037 13.478 7.019 15.239 7 17 C6.67 17 6.34 17 6 17 C5.67 12.71 5.34 8.42 5 4 C4.34 4 3.68 4 3 4 C3 3.34 3 2.68 3 2 C2.01 2 1.02 2 0 2 C0 1.34 0 0.68 0 0 Z " fill="#1D232A" transform="translate(492,220)"/>
<path d="M0 0 C1 2 1 2 0.223 4.602 C-0.16 5.599 -0.543 6.597 -0.938 7.625 C-1.128 8.126 -1.128 8.126 -2.09 10.664 C-2.39 11.435 -2.691 12.206 -3 13 C-4.172 8.901 -4.071 5.246 -4 1 C-2.68 0.67 -1.36 0.34 0 0 Z " fill="#0B1217" transform="translate(789,238)"/>
<path d="M0 0 C1.675 0.286 3.344 0.618 5 1 C5.33 2.98 5.66 4.96 6 7 C5.01 7.33 4.02 7.66 3 8 C2.67 6.02 2.34 4.04 2 2 C1.01 1.67 0.02 1.34 -1 1 C-0.67 0.67 -0.34 0.34 0 0 Z " fill="#0F1418" transform="translate(614,318)"/>
<path d="M0 0 C0.33 0 0.66 0 1 0 C1.163 2.018 1.326 4.036 1.488 6.055 C2 8 2 8 5 10 C4.34 11.98 3.68 13.96 3 16 C0.367 12.05 -0.123 9.451 -0.062 4.812 C-0.053 3.911 -0.044 3.01 -0.035 2.082 C-0.024 1.395 -0.012 0.708 0 0 Z " fill="#070D15" transform="translate(739,300)"/>
<path d="M0 0 C1.32 0.33 2.64 0.66 4 1 C3.505 1.413 3.01 1.825 2.5 2.25 C1 4 1 4 1 8 C-0.812 9.812 -0.812 9.812 -3 11 C-3.99 10.67 -4.98 10.34 -6 10 C-5.381 9.464 -4.762 8.928 -4.125 8.375 C-1.722 5.689 -0.94 3.446 0 0 Z " fill="#1D2327" transform="translate(182,261)"/>
<path d="M0 0 C2.567 3.85 1.833 5.586 1 10 C0.01 10.33 -0.98 10.66 -2 11 C-2.33 8.36 -2.66 5.72 -3 3 C-2.01 3 -1.02 3 0 3 C0 2.01 0 1.02 0 0 Z " fill="#060F17" transform="translate(307,257)"/>
<path d="M0 0 C0.66 0.33 1.32 0.66 2 1 C2.484 2.926 2.484 2.926 2.75 5.312 C2.848 6.092 2.946 6.872 3.047 7.676 C2.994 10.301 2.33 11.765 1 14 C-1.029 10.685 -1.127 8.568 -0.625 4.75 C-0.514 3.858 -0.403 2.966 -0.289 2.047 C-0.194 1.371 -0.098 0.696 0 0 Z " fill="#081219" transform="translate(196,233)"/>
<path d="M0 0 C3.949 0.551 7.349 1.389 11 3 C11 3.66 11 4.32 11 5 C8.36 5 5.72 5 3 5 C3 3.68 3 2.36 3 1 C2.01 0.67 1.02 0.34 0 0 Z " fill="#091119" transform="translate(693,222)"/>
<path d="M0 0 C3.49 3.49 4.905 5.87 5.125 10.812 C5.084 11.534 5.043 12.256 5 13 C4.67 12.01 4.34 11.02 4 10 C3.34 10 2.68 10 2 10 C1.67 10.66 1.34 11.32 1 12 C0.67 8.04 0.34 4.08 0 0 Z " fill="#0B1218" transform="translate(331,209)"/>
<path d="M0 0 C0.66 0 1.32 0 2 0 C2.33 2.31 2.66 4.62 3 7 C2.34 7 1.68 7 1 7 C1 11.29 1 15.58 1 20 C0.67 20 0.34 20 0 20 C0 13.4 0 6.8 0 0 Z " fill="#0E1820" transform="translate(577,163)"/>
<path d="M0 0 C2.64 0.33 5.28 0.66 8 1 C8 1.99 8 2.98 8 4 C8.66 4.66 9.32 5.32 10 6 C6.059 5.437 3.249 4.321 0 2 C0 1.34 0 0.68 0 0 Z " fill="#0A1118" transform="translate(772,355)"/>
<path d="M0 0 C3.63 0 7.26 0 11 0 C11 0.99 11 1.98 11 3 C7.333 3 3.667 3 0 3 C0 2.01 0 1.02 0 0 Z " fill="#060F17" transform="translate(256,227)"/>
<path d="M0 0 C0.33 0.66 0.66 1.32 1 2 C1.66 2 2.32 2 3 2 C3.33 1.34 3.66 0.68 4 0 C5.32 0.66 6.64 1.32 8 2 C6.35 3.98 4.7 5.96 3 8 C1.055 5.082 0.547 3.375 0 0 Z " fill="#D9D9DA" transform="translate(336,219)"/>
<path d="M0 0 C4.62 0 9.24 0 14 0 C9.301 3.524 9.301 3.524 5 3 C2.188 2 2.188 2 0 1 C0 0.67 0 0.34 0 0 Z " fill="#091019" transform="translate(827,361)"/>
<path d="M0 0 C1.32 0 2.64 0 4 0 C4 0.99 4 1.98 4 3 C5.65 3 7.3 3 9 3 C9 3.33 9 3.66 9 4 C7.742 4.186 6.484 4.371 5.188 4.562 C4.834 4.615 4.834 4.615 3.043 4.879 C1 5 1 5 -2 4 C-2 2 -2 2 0 0 Z " fill="#0A151F" transform="translate(424,345)"/>
<path d="M0 0 C0.495 0.33 0.495 0.33 3 2 C2.25 7.75 2.25 7.75 0 10 C-0.194 8.522 -0.38 7.042 -0.562 5.562 C-0.667 4.739 -0.771 3.915 -0.879 3.066 C-0.919 2.384 -0.959 1.703 -1 1 C-0.67 0.67 -0.34 0.34 0 0 Z " fill="#0A141C" transform="translate(716,332)"/>
<path d="M0 0 C0.66 0.99 1.32 1.98 2 3 C-1.96 2.67 -5.92 2.34 -10 2 C-10 1.34 -10 0.68 -10 0 C-6.42 -1.239 -3.644 -0.951 0 0 Z " fill="#091019" transform="translate(806,219)"/>
<path d="M0 0 C0.33 0.99 0.66 1.98 1 3 C0.34 4.32 -0.32 5.64 -1 7 C-4.3 6.67 -7.6 6.34 -11 6 C-11 5.34 -11 4.68 -11 4 C-7.7 4 -4.4 4 -1 4 C-0.67 2.68 -0.34 1.36 0 0 Z " fill="#080D14" transform="translate(209,284)"/>
<path d="M0 0 C2 2 2 2 2.125 5.125 C2.084 6.074 2.043 7.022 2 8 C1.01 8.33 0.02 8.66 -1 9 C-1.81 6.085 -2.218 4.539 -1.062 1.688 C-0.712 1.131 -0.361 0.574 0 0 Z " fill="#0E141B" transform="translate(264,256)"/>
<path d="M0 0 C0.474 0.165 0.474 0.165 2.875 1 C6 2 6 2 8 2 C8 4.31 8 6.62 8 9 C5.068 6.147 2.357 3.349 0 0 Z " fill="#0A1219" transform="translate(684,231)"/>
<path d="M0 0 C0.99 0.33 1.98 0.66 3 1 C2.55 2.627 2.089 4.252 1.625 5.875 C1.37 6.78 1.115 7.685 0.852 8.617 C0 11 0 11 -2 13 C-1.86 11.02 -1.713 9.041 -1.562 7.062 C-1.481 5.96 -1.4 4.858 -1.316 3.723 C-1 1 -1 1 0 0 Z " fill="#111920" transform="translate(179,230)"/>
<path d="M0 0 C0 3.96 0 7.92 0 12 C-0.99 11.34 -1.98 10.68 -3 10 C-3.293 7.836 -3.293 7.836 -3.188 5.375 C-3.16 4.558 -3.133 3.74 -3.105 2.898 C-3.088 2.585 -3.088 2.585 -3 1 C-1 0 -1 0 0 0 Z " fill="#1F272E" transform="translate(237,222)"/>
<path d="M0 0 C4.29 0 8.58 0 13 0 C9.719 2.187 7.669 2.544 3.812 3.125 C2.726 3.293 1.639 3.46 0.52 3.633 C-0.312 3.754 -1.143 3.875 -2 4 C-1.34 2.68 -0.68 1.36 0 0 Z " fill="#D1D4D6" transform="translate(557,158)"/>
<path d="M0 0 C1.32 0.33 2.64 0.66 4 1 C2.592 1.869 1.174 2.72 -0.25 3.562 C-1.039 4.038 -1.828 4.514 -2.641 5.004 C-5.308 6.13 -6.345 6.017 -9 5 C-8.67 4.34 -8.34 3.68 -8 3 C-5.351 2.406 -2.708 2.258 0 2 C0 1.34 0 0.68 0 0 Z " fill="#080D15" transform="translate(437,358)"/>
<path d="M0 0 C1.98 0.66 3.96 1.32 6 2 C6 2.99 6 3.98 6 5 C3.69 5 1.38 5 -1 5 C-1.33 4.34 -1.66 3.68 -2 3 C-1.34 3 -0.68 3 0 3 C0 2.01 0 1.02 0 0 Z " fill="#0B141B" transform="translate(695,281)"/>
<path d="M0 0 C1.44 0.257 2.877 0.531 4.312 0.812 C5.113 0.963 5.914 1.114 6.738 1.27 C9 2 9 2 12 5 C7.71 4.34 3.42 3.68 -1 3 C-0.67 2.01 -0.34 1.02 0 0 Z " fill="#050D16" transform="translate(682,276)"/>
<path d="M0 0 C0.66 0 1.32 0 2 0 C2 4.29 2 8.58 2 13 C-0.517 9.224 -1.263 6.69 -0.562 2.188 C-0.377 1.466 -0.191 0.744 0 0 Z " fill="#060F18" transform="translate(836,239)"/>
<path d="M0 0 C3.215 1.408 5.322 3.103 7.75 5.625 C8.057 5.941 8.057 5.941 9.609 7.539 C9.839 7.78 9.839 7.78 11 9 C10.34 9.66 9.68 10.32 9 11 C5.57 7.693 2.148 4.297 0 0 Z " fill="#0C1218" transform="translate(310,181)"/>
<path d="M0 0 C3.96 0 7.92 0 12 0 C12 0.66 12 1.32 12 2 C10.564 2.196 9.126 2.381 7.688 2.562 C6.887 2.667 6.086 2.771 5.262 2.879 C3 3 3 3 0 2 C0 1.34 0 0.68 0 0 Z " fill="#071018" transform="translate(180,227)"/>
<path d="M0 0 C0.404 0.005 0.404 0.005 2.449 0.027 C2.757 0.033 2.757 0.033 4.312 0.062 C2.068 2.307 1.352 2.433 -1.688 2.812 C-2.038 2.861 -2.038 2.861 -3.812 3.109 C-5.688 3.062 -5.688 3.062 -7.688 1.062 C-4.805 0.102 -2.989 -0.043 0 0 Z " fill="#08121A" transform="translate(792.6875,360.9375)"/>
<path d="M0 0 C3.96 0 7.92 0 12 0 C8 3 8 3 5.438 3.375 C3 3 3 3 0 0 Z " fill="#050D14" transform="translate(680,361)"/>
<path d="M0 0 C0.33 0 0.66 0 1 0 C0.885 1.584 0.758 3.167 0.625 4.75 C0.59 5.191 0.59 5.191 0.414 7.422 C0 10 0 10 -2 14 C-2.33 11.03 -2.66 8.06 -3 5 C-2.01 5 -1.02 5 0 5 C0 3.35 0 1.7 0 0 Z " fill="#040B12" transform="translate(212,203)"/>
<path d="M0 0 C2.691 0.176 5.329 0.618 8 1 C7.402 1.289 6.804 1.577 6.188 1.875 C2.869 3.581 1.095 4.857 -1 8 C-1.042 5.667 -1.041 3.333 -1 1 C-0.67 0.67 -0.34 0.34 0 0 Z " fill="#090F17" transform="translate(216,186)"/>
<path d="M0 0 C0.66 0.33 1.32 0.66 2 1 C2 4.3 2 7.6 2 11 C-0.142 7.787 -0.597 5.789 -1 2 C-0.67 1.34 -0.34 0.68 0 0 Z " fill="#040D16" transform="translate(743,315)"/>
<path d="M0 0 C0.33 0.66 0.66 1.32 1 2 C1.66 2 2.32 2 3 2 C2.744 4.343 2.407 6.678 2 9 C1.67 9.165 1.67 9.165 0 10 C0 6.7 0 3.4 0 0 Z " fill="#D4D7D9" transform="translate(722,314)"/>
<path d="M0 0 C0.485 0.01 0.485 0.01 2.938 0.062 C2.938 0.722 2.938 1.382 2.938 2.062 C3.598 2.393 4.257 2.722 4.938 3.062 C2.298 3.393 -0.342 3.722 -3.062 4.062 C-3.392 3.072 -3.723 2.083 -4.062 1.062 C-3.062 0.062 -3.062 0.062 0 0 Z " fill="#DEDFE0" transform="translate(477.0625,219.9375)"/>
<path d="M0 0 C0.33 0 0.66 0 1 0 C1.66 3.96 2.32 7.92 3 12 C2.34 12 1.68 12 1 12 C1 10.68 1 9.36 1 8 C0.01 7.67 -0.98 7.34 -2 7 C-1.34 4.69 -0.68 2.38 0 0 Z " fill="#1F252D" transform="translate(229,267)"/>
<path d="M0 0 C0.66 0.66 1.32 1.32 2 2 C1.625 4.625 1.625 4.625 1 7 C-1 4 -1 4 -0.625 1.812 C-0.419 1.214 -0.213 0.616 0 0 Z M-4 3 C-3.505 3.33 -3.505 3.33 -1 5 C-1.33 5.99 -1.66 6.98 -2 8 C-2.66 8 -3.32 8 -4 8 C-4 6.35 -4 4.7 -4 3 Z " fill="#23282E" transform="translate(222,233)"/>
<path d="M0 0 C0 2.64 0 5.28 0 8 C-0.66 8 -1.32 8 -2 8 C-3.062 6.188 -3.062 6.188 -4 4 C-3.67 3.01 -3.34 2.02 -3 1 C-1 0 -1 0 0 0 Z " fill="#060F18" transform="translate(273,232)"/>
<path d="M0 0 C2.12 2.615 4.131 5.196 6 8 C5.01 8.66 4.02 9.32 3 10 C1.578 6.683 0.61 3.558 0 0 Z " fill="#0A1117" transform="translate(499,346)"/>
<path d="M0 0 C1.245 2.491 0.777 3.411 0 6 C-1.65 6.33 -3.3 6.66 -5 7 C-3.707 4.116 -2.341 2.128 0 0 Z " fill="#080F15" transform="translate(535,349)"/>
<path d="M0 0 C3.736 1.245 4.188 2.634 6 6 C4.68 5.67 3.36 5.34 2 5 C1.67 5.66 1.34 6.32 1 7 C0.67 4.69 0.34 2.38 0 0 Z " fill="#1B2129" transform="translate(711,292)"/>
<path d="M0 0 C0.99 0.33 1.98 0.66 3 1 C4.188 3.562 4.188 3.562 5 6 C3.35 6.33 1.7 6.66 0 7 C0.33 6.34 0.66 5.68 1 5 C0.721 3.323 0.392 1.654 0 0 Z " fill="#18232D" transform="translate(641,251)"/>
<path d="M0 0 C6.055 -0.195 6.055 -0.195 8 0 C8.66 0.66 9.32 1.32 10 2 C6.688 2.688 6.688 2.688 3 3 C1.062 1.562 1.062 1.562 0 0 Z " fill="#091822" transform="translate(469,361)"/>
<path d="M0 0 C0.763 0.619 1.526 1.238 2.312 1.875 C5 4 5 4 8 6 C5.667 6.042 3.333 6.041 1 6 C0 5 0 5 -0.062 2.438 C-0.042 1.633 -0.021 0.829 0 0 Z " fill="#090E15" transform="translate(460,359)"/>
<path d="M0 0 C3.27 0.564 4.826 1.5 7 4 C6.34 4.66 5.68 5.32 5 6 C5 5.34 5 4.68 5 4 C3.35 3.67 1.7 3.34 0 3 C0 2.01 0 1.02 0 0 Z " fill="#1B2229" transform="translate(792,350)"/>
<path d="M0 0 C0.99 0.33 1.98 0.66 3 1 C3 2.32 3 3.64 3 5 C1.062 4.688 1.062 4.688 -1 4 C-1.33 3.01 -1.66 2.02 -2 1 C-1.34 0.67 -0.68 0.34 0 0 Z " fill="#081118" transform="translate(620,285)"/>
<path d="M0 0 C-0.33 1.98 -0.66 3.96 -1 6 C-1.99 5.67 -2.98 5.34 -4 5 C-4 3.68 -4 2.36 -4 1 C-2 0 -2 0 0 0 Z " fill="#0A121A" transform="translate(336,279)"/>
<path d="M0 0 C1.32 0.66 2.64 1.32 4 2 C3.67 2.66 3.34 3.32 3 4 C0.36 4 -2.28 4 -5 4 C-4.67 3.34 -4.34 2.68 -4 2 C-2.68 2 -1.36 2 0 2 C0 1.34 0 0.68 0 0 Z " fill="#0A1722" transform="translate(301,270)"/>
<path d="M0 0 C1.65 0 3.3 0 5 0 C5.33 0.99 5.66 1.98 6 3 C4.02 3.66 2.04 4.32 0 5 C0 3.35 0 1.7 0 0 Z " fill="#02080E" transform="translate(444,230)"/>
<path d="M0 0 C0.66 0.33 1.32 0.66 2 1 C1.01 1.66 0.02 2.32 -1 3 C-0.01 3.66 0.98 4.32 2 5 C-0.31 5 -2.62 5 -5 5 C-5 4.01 -5 3.02 -5 2 C-2.625 0.938 -2.625 0.938 0 0 Z " fill="#D6D7D8" transform="translate(693,361)"/>
<path d="M0 0 C2.31 0 4.62 0 7 0 C5.71 1.376 4.373 2.708 3 4 C2.34 4 1.68 4 1 4 C0.67 2.68 0.34 1.36 0 0 Z " fill="#0C1419" transform="translate(296,326)"/>
<path d="M0 0 C0.33 0 0.66 0 1 0 C2.125 5.75 2.125 5.75 1 8 C0.34 8 -0.32 8 -1 8 C-1.33 8.66 -1.66 9.32 -2 10 C-1.542 6.531 -1.109 3.326 0 0 Z " fill="#040A0F" transform="translate(261,265)"/>
<path d="M0 0 C0 0.33 0 0.66 0 1 C-1.65 1 -3.3 1 -5 1 C-5 2.32 -5 3.64 -5 5 C-5.99 4.67 -6.98 4.34 -8 4 C-8.33 3.01 -8.66 2.02 -9 1 C-5.804 -0.065 -3.343 -0.074 0 0 Z " fill="#070D15" transform="translate(459,228)"/>
<path d="M0 0 C0 0.33 0 0.66 0 1 C-3.3 1 -6.6 1 -10 1 C-7.683 -3.634 -3.886 -1.468 0 0 Z " fill="#050E16" transform="translate(785,226)"/>
<path d="M0 0 C1.32 0.33 2.64 0.66 4 1 C4.33 2.32 4.66 3.64 5 5 C3.35 5 1.7 5 0 5 C0 3.35 0 1.7 0 0 Z " fill="#09151D" transform="translate(326,203)"/>
<path d="M0 0 C2.64 0 5.28 0 8 0 C8 0.33 8 0.66 8 1 C6.02 1.33 4.04 1.66 2 2 C2.33 2.99 2.66 3.98 3 5 C2.01 5 1.02 5 0 5 C0 4.34 0 3.68 0 3 C-0.66 2.67 -1.32 2.34 -2 2 C-1.34 2 -0.68 2 0 2 C0 1.34 0 0.68 0 0 Z " fill="#060D15" transform="translate(570,158)"/>
<path d="M0 0 C2.729 0.033 5.297 0.564 8 1 C5.241 2.804 4.11 3.013 0.75 2.625 C-0.158 2.419 -1.065 2.212 -2 2 C-1.34 1.34 -0.68 0.68 0 0 Z " fill="#CDD1D1" transform="translate(636,364)"/>
<path d="M0 0 C0.33 0 0.66 0 1 0 C1.082 0.784 1.165 1.567 1.25 2.375 C2 5 2 5 4.062 6.312 C4.702 6.539 5.341 6.766 6 7 C3.188 7.625 3.188 7.625 0 8 C-0.99 7.34 -1.98 6.68 -3 6 C-2.01 6 -1.02 6 0 6 C0 4.02 0 2.04 0 0 Z " fill="#BEC0C2" transform="translate(459,359)"/>
<path d="M0 0 C2.31 1.98 4.62 3.96 7 6 C6.67 6.165 6.67 6.165 5 7 C4.01 6.67 3.02 6.34 2 6 C2 5.01 2 4.02 2 3 C1.34 3 0.68 3 0 3 C0 2.01 0 1.02 0 0 Z " fill="#080D16" transform="translate(632,343)"/>
<path d="M0 0 C-1.32 0.33 -2.64 0.66 -4 1 C-4 1.66 -4 2.32 -4 3 C-6.97 2.67 -9.94 2.34 -13 2 C-13 1.67 -13 1.34 -13 1 C-8.614 0.298 -4.442 -0.108 0 0 Z " fill="#070B14" transform="translate(442,345)"/>
<path d="M0 0 C0.33 0 0.66 0 1 0 C1 3.3 1 6.6 1 10 C0.34 9.67 -0.32 9.34 -1 9 C-1.625 6.438 -1.625 6.438 -2 4 C-1.34 4 -0.68 4 0 4 C0 2.68 0 1.36 0 0 Z " fill="#0D161E" transform="translate(377,338)"/>
<path d="M0 0 C5.75 0.75 5.75 0.75 8 3 C5.688 3.688 5.688 3.688 3 4 C1.188 2.625 1.188 2.625 0 1 C0 0.67 0 0.34 0 0 Z " fill="#080E14" transform="translate(673,273)"/>
<path d="M0 0 C2 2 2 2 2 6 C0.68 5.67 -0.64 5.34 -2 5 C-1.125 1.125 -1.125 1.125 0 0 Z " fill="#021019" transform="translate(186,262)"/>
<path d="M0 0 C0.33 0 0.66 0 1 0 C1.125 3.375 1.125 3.375 1 7 C0.34 7.66 -0.32 8.32 -1 9 C-1.625 5.625 -1.625 5.625 -2 2 C-1.34 1.34 -0.68 0.68 0 0 Z " fill="#0B0E10" transform="translate(202,251)"/>
<path d="M0 0 C0 2.31 0 4.62 0 7 C-0.66 7 -1.32 7 -2 7 C-2.66 5.35 -3.32 3.7 -4 2 C-1 0 -1 0 0 0 Z " fill="#060F17" transform="translate(372,238)"/>
<path d="M0 0 C2.97 0.33 5.94 0.66 9 1 C9 1.33 9 1.66 9 2 C7.515 2.165 7.515 2.165 0 3 C0 2.01 0 1.02 0 0 Z " fill="#CACDD1" transform="translate(390,220)"/>
</svg>
