<?xml version="1.0" encoding="UTF-8"?>
<!-- Generator: visioncortex VTracer 0.6.12 -->
<svg version="1.1" xmlns="http://www.w3.org/2000/svg" width="1024" height="559">
<path d="M0 0 C0.92479345 -0.07089088 1.84958691 -0.14178177 2.8024044 -0.21482086 C3.82686983 -0.2864872 4.85133526 -0.35815353 5.90684509 -0.43199158 C6.98156382 -0.50790276 8.05628254 -0.58381393 9.1635685 -0.66202545 C113.88804981 -7.73244367 113.88804981 -7.73244367 139.20957947 13.1441803 C159.65762591 31.48092594 165.88496686 57.0467793 167.58066845 83.64762497 C168.9070891 111.65802038 165.3137093 140.26992162 146.37400246 162.10553741 C129.72980734 180.38460904 112.25037916 188.2998829 87.58805275 189.56206512 C68.58084531 190.28088179 49.57783862 188.75968707 30.7230072 186.44325256 C30.7418824 186.75010735 30.7418824 186.75010735 30.83740234 188.30297852 C31.21779164 194.77564815 31.47152072 201.24509102 31.65684509 207.72621155 C31.74159454 210.13344962 31.85706122 212.53983231 32.00547791 214.94398499 C32.21530987 218.43416574 32.30876671 221.91269555 32.38316345 225.40809631 C32.4709053 226.45779099 32.55864716 227.50748566 32.64904785 228.58898926 C32.65293884 231.73988342 32.65293884 231.73988342 30.7230072 238.44325256 C25.1130072 244.05325256 19.5030072 249.66325256 13.7230072 255.44325256 C-3.7669928 255.44325256 -21.2569928 255.44325256 -39.2769928 255.44325256 C-39.2769928 208.58325256 -39.2769928 161.72325256 -39.2769928 113.44325256 C-26.7369928 113.11325256 -14.1969928 112.78325256 -1.2769928 112.44325256 C1.89495984 109.27129993 3.26275072 106.31208149 4.9105072 102.25575256 C5.18314392 101.60155334 5.45578064 100.94735413 5.73667908 100.27333069 C6.40540518 98.66604164 7.06510645 97.05500294 7.7230072 95.44325256 C9.83218771 98.60702333 10.82836905 101.37471435 12.0355072 104.97450256 C12.24989441 105.606828 12.46428162 106.23915344 12.68516541 106.89064026 C13.59980515 109.58877757 14.50417285 112.29032929 15.40953064 114.99159241 C16.07299308 116.96627366 16.74162115 118.93915319 17.4105072 120.91200256 C17.80624939 122.09213928 18.20199158 123.272276 18.60972595 124.48817444 C19.7230072 127.44325256 19.7230072 127.44325256 21.7230072 130.44325256 C23.6683197 130.73622131 23.6683197 130.73622131 25.8480072 130.63075256 C27.1267572 130.56887756 28.4055072 130.50700256 29.7230072 130.44325256 C31.81641442 120.63504461 33.86598564 110.82073065 35.7933197 100.97840881 C35.96273071 100.11637848 36.13214172 99.25434814 36.3066864 98.36619568 C36.99905704 94.84181455 37.69078373 91.31734393 38.37388611 87.79115295 C38.8834261 85.16500756 39.40023578 82.54038008 39.9183197 79.91590881 C40.07043915 79.12120682 40.22255859 78.32650482 40.37928772 77.50772095 C41.10828553 73.84449071 41.96202917 70.72866741 43.7230072 67.44325256 C43.90648712 68.42995438 44.08996704 69.41665619 44.27900696 70.43325806 C46.01138674 79.74705407 47.74730312 89.06018491 49.48665428 98.37268162 C50.38068564 103.15995637 51.27348395 107.94745414 52.16343689 112.73548889 C53.02286836 117.35905997 53.88557458 121.98200918 54.75052261 126.60455132 C55.07939671 128.36530387 55.40710462 130.12627468 55.73360825 131.88746834 C56.19228977 134.36051424 56.65516988 136.83274075 57.1190033 139.30482483 C57.25207382 140.02771698 57.38514435 140.75060913 57.52224731 141.4954071 C58.35538152 145.90622669 59.43188602 150.15073337 60.7230072 154.44325256 C64.0355072 155.13075256 64.0355072 155.13075256 67.7230072 155.44325256 C70.40031077 153.45500118 71.22708671 151.54277908 72.00987244 148.36170959 C72.21696335 147.54300385 72.42405426 146.7242981 72.63742065 145.88078308 C72.85000015 144.99647614 73.06257965 144.11216919 73.28160095 143.20106506 C73.51202591 142.28171173 73.74245087 141.3623584 73.9798584 140.41514587 C74.71668635 137.46855072 75.43927088 134.5186991 76.1605072 131.56825256 C77.1125056 127.71542889 78.07047488 123.86412121 79.03160095 120.01356506 C79.26132599 119.09013306 79.49105103 118.16670105 79.72773743 117.21528625 C81.48761354 110.20868552 83.46535075 103.30789104 85.7230072 96.44325256 C87.5940021 99.24974492 88.95318672 101.9428573 90.3480072 105.00575256 C90.79402283 105.97641663 91.24003845 106.94708069 91.6995697 107.94715881 C92.7230072 110.44325256 92.7230072 110.44325256 92.7230072 112.44325256 C96.94052002 112.4927137 101.15787889 112.52900083 105.37559509 112.55311584 C106.81019532 112.56316956 108.24477509 112.5768145 109.67930603 112.59413147 C111.74210158 112.61840805 113.80462605 112.62974175 115.86753845 112.63856506 C117.10866394 112.6490387 118.34978943 112.65951233 119.62852478 112.67030334 C122.7230072 112.44325256 122.7230072 112.44325256 125.7230072 110.44325256 C125.7230072 107.80325256 125.7230072 105.16325256 125.7230072 102.44325256 C117.4730072 102.11325256 109.2230072 101.78325256 100.7230072 101.44325256 C96.84700386 93.23524549 93.05974677 85.06098327 89.6683197 76.63856506 C88.7230072 74.44325256 88.7230072 74.44325256 87.7230072 73.44325256 C85.72342357 73.40244473 83.72255466 73.400709 81.7230072 73.44325256 C78.72768133 79.67111764 76.61398454 85.81670842 74.9261322 92.50965881 C74.6876355 93.42915817 74.44913879 94.34865753 74.20341492 95.29602051 C73.45262503 98.19743532 72.71264569 101.10147735 71.9730072 104.00575256 C71.46200442 105.98835911 70.9502922 107.97078295 70.43785095 109.95301819 C69.19136517 114.78102466 67.95455838 119.61141592 66.7230072 124.44325256 C64.65766975 120.89679165 64.00416874 117.4179498 63.25840759 113.40248108 C63.12638443 112.70101456 62.99436127 111.99954803 62.8583374 111.27682495 C62.42356162 108.95960223 61.99720521 106.64091001 61.57066345 104.32215881 C61.26742862 102.69980778 60.96358073 101.07757123 60.65914917 99.45544434 C59.85786884 95.17882475 59.06333142 90.90098248 58.27067566 86.62275696 C57.00728955 79.80803732 55.73525058 72.99493728 54.46030998 66.18237114 C54.01956097 63.8207295 53.58260535 61.45841027 53.14611816 59.09597778 C48.53362331 34.25386867 48.53362331 34.25386867 45.7230072 31.44325256 C42.5980072 31.81825256 42.5980072 31.81825256 39.7230072 32.44325256 C37.31232039 39.07591669 35.70571575 45.70087818 34.3480072 52.61903381 C34.13740662 53.6654454 33.92680603 54.71185699 33.70982361 55.78997803 C33.04217489 59.11085297 32.38206518 62.43316299 31.7230072 65.75575256 C31.06294894 69.06741586 30.40117616 72.37871453 29.7361908 75.68939209 C29.32457129 77.74021661 28.9158266 79.79162124 28.51060486 81.84371948 C27.12524151 88.76742032 25.48829145 95.60686764 23.7230072 102.44325256 C21.76613924 99.50795062 20.75786897 97.02917314 19.59410095 93.71669006 C19.1990033 92.60294006 18.80390564 91.48919006 18.39683533 90.34169006 C17.98884705 89.17895569 17.58085876 88.01622131 17.1605072 86.81825256 C16.34923753 84.51267241 15.53556741 82.20793502 14.71910095 79.90419006 C14.36001648 78.88115784 14.00093201 77.85812561 13.63096619 76.80409241 C12.7230072 74.44325256 12.7230072 74.44325256 11.7230072 73.44325256 C9.72342357 73.40244473 7.72255466 73.400709 5.7230072 73.44325256 C1.91241837 80.69958662 -1.41468831 87.98687978 -4.35951233 95.62904358 C-6.18634519 100.35260495 -6.18634519 100.35260495 -7.2769928 101.44325256 C-9.65267799 101.53164927 -11.99907954 101.55855562 -14.37464905 101.54090881 C-14.72907829 101.54020134 -14.72907829 101.54020134 -16.52270508 101.53662109 C-18.79500992 101.53100699 -21.06721755 101.51845219 -23.3394928 101.50575256 C-24.87660075 101.50073938 -26.41371025 101.49617616 -27.95082092 101.49208069 C-31.72624922 101.48103299 -35.50160451 101.46375898 -39.2769928 101.44325256 C-39.50972619 93.14137276 -39.68688043 84.84087711 -39.79511452 76.53653145 C-39.84709055 72.67938861 -39.91745167 68.82449272 -40.03138733 64.96864319 C-40.14085726 61.24016001 -40.19999593 57.51382268 -40.22576523 53.78385544 C-40.24410202 52.36832279 -40.27991358 50.95289469 -40.33429337 49.53828812 C-40.56106806 43.38884672 -40.73797014 38.4462952 -37.0193634 33.34797668 C-34.54081552 30.87980506 -31.97735391 28.66105982 -29.2769928 26.44325256 C-28.9469928 25.78325256 -28.6169928 25.12325256 -28.2769928 24.44325256 C-27.6169928 24.44325256 -26.9569928 24.44325256 -26.2769928 24.44325256 C-25.9469928 23.45325256 -25.6169928 22.46325256 -25.2769928 21.44325256 C-24.6169928 21.44325256 -23.9569928 21.44325256 -23.2769928 21.44325256 C-23.0398053 20.88122131 -22.8026178 20.31919006 -22.5582428 19.74012756 C-20.98751583 16.92431215 -19.06227815 14.9636984 -16.7769928 12.69325256 C-15.9829303 11.89403381 -15.1888678 11.09481506 -14.3707428 10.27137756 C-12.2769928 8.44325256 -12.2769928 8.44325256 -10.2769928 8.44325256 C-9.9469928 7.45325256 -9.6169928 6.46325256 -9.2769928 5.44325256 C-8.6169928 5.44325256 -7.9569928 5.44325256 -7.2769928 5.44325256 C-6.9676178 4.80387756 -6.6582428 4.16450256 -6.3394928 3.50575256 C-4.6113556 0.1511333 -3.68036329 0.28014789 0 0 Z " fill="#000000" transform="translate(178.27699279785156,157.55674743652344)"/>
<path d="M0 0 C0 67.98 0 135.96 0 206 C-11.22 206 -22.44 206 -34 206 C-34 140.99 -34 75.98 -34 9 C-3 0 -3 0 0 0 Z " fill="#000000" transform="translate(571,159)"/>
<path d="M0 0 C11.55 0 23.1 0 35 0 C35.01458252 3.12428467 35.02916504 6.24856934 35.04418945 9.4675293 C35.09450615 19.78534873 35.16109612 30.10301679 35.23571491 40.42068768 C35.28045949 46.67684837 35.31970678 52.93294332 35.34643555 59.18920898 C35.37242746 65.22583717 35.41280113 71.26221292 35.46318626 77.29868507 C35.47988274 79.60274938 35.49137965 81.90685737 35.49761391 84.21097374 C35.50722452 87.43608496 35.53524834 90.66054628 35.56762695 93.88549805 C35.56619186 94.83999847 35.56475677 95.7944989 35.5632782 96.77792358 C35.63406108 101.75685979 35.94340224 104.86461794 39 109 C39 109.66 39 110.32 39 111 C39.309375 111.1546875 39.309375 111.1546875 40.875 111.9375 C42.25 112.625 43.625 113.3125 45 114 C46.41791335 114.10933972 47.8406866 114.15898306 49.26269531 114.17700195 C50.14411194 114.18983719 51.02552856 114.20267242 51.93365479 114.21589661 C52.41124237 114.21959007 52.41124237 114.21959007 54.828125 114.23828125 C55.80988708 114.246353 56.79164917 114.25442474 57.80316162 114.26274109 C59.88454418 114.27658792 61.9659495 114.28730739 64.04736328 114.29516602 C67.22342298 114.31235615 70.39843574 114.35623456 73.57421875 114.40039062 C75.59634651 114.4105195 77.61848312 114.41903499 79.640625 114.42578125 C80.11416412 114.43453529 80.11416412 114.43453529 82.51055908 114.47883606 C88.1622496 114.46034172 91.62193286 113.94000794 96 110 C99.82709968 105.29748128 99.4409825 100.57608393 99.43237305 94.79370117 C99.4425647 93.76884613 99.45275635 92.74399109 99.46325684 91.68807983 C99.49341003 88.30632069 99.50265656 84.92484472 99.51171875 81.54296875 C99.52856366 79.19597938 99.54671365 76.84899904 99.56611633 74.50202942 C99.61364254 68.32893699 99.64343515 62.15588119 99.66955566 55.98266602 C99.6993478 49.68172981 99.74588281 43.38091982 99.79101562 37.08007812 C99.87707879 24.72010353 99.94286334 12.3601422 100 0 C111.55 0 123.1 0 135 0 C135.09052971 14.1522308 135.16384821 28.30426786 135.20724869 42.45672321 C135.22808341 49.02895721 135.25632633 55.60098205 135.30175781 62.1730957 C135.34536159 68.52086112 135.36916804 74.8684259 135.37950897 81.21632957 C135.38687422 83.63272444 135.40125663 86.04910888 135.42292023 88.46541786 C135.45214656 91.86170423 135.45594787 95.25717167 135.45410156 98.65356445 C135.46848267 99.64259766 135.48286377 100.63163086 135.49768066 101.65063477 C135.444627 110.72674635 133.29074937 119.52044919 126.8125 126.1875 C126.02746094 126.99832031 125.24242187 127.80914062 124.43359375 128.64453125 C115.47164935 137.31877278 108.4221633 144.06786419 95.46240234 144.17700195 C94.81463837 144.18357315 94.16687439 144.19014435 93.4994812 144.19691467 C91.36163193 144.21657727 89.22385284 144.22829725 87.0859375 144.23828125 C86.71890528 144.24031901 86.71890528 144.24031901 84.86149979 144.25063133 C80.97261083 144.27146665 77.08375685 144.28577675 73.19482422 144.29516602 C69.20041696 144.30619805 65.20657173 144.34056739 61.21236229 144.38033772 C58.1220301 144.40663086 55.03182898 144.41486923 51.94139481 144.41844749 C50.47034555 144.42328431 48.99930099 144.43481432 47.52836227 144.45348549 C37.55023784 144.57222397 29.2360805 143.88770421 21.01171875 137.78125 C20.62822266 137.40484375 20.62822266 137.40484375 18.6875 135.5 C16.31065862 133.20566055 14.01018846 131.00793627 11.40234375 128.9765625 C9.08341908 127.06863424 7.54758805 125.35189268 5.875 122.875 C5.39804687 122.19179688 4.92109375 121.50859375 4.4296875 120.8046875 C0.48470201 113.06561761 -0.43562631 105.53341859 -0.34057617 96.95068359 C-0.34101425 95.89583771 -0.34145233 94.84099182 -0.34190369 93.75418091 C-0.33983027 90.30207157 -0.31656754 86.85046096 -0.29296875 83.3984375 C-0.28736766 80.99134588 -0.28309998 78.58425082 -0.28010559 76.17715454 C-0.26869732 69.86755797 -0.23926472 63.55817134 -0.20599365 57.24865723 C-0.175206 50.79991495 -0.16158171 44.35113847 -0.14648438 37.90234375 C-0.11439114 25.26812249 -0.06165603 12.63411162 0 0 Z " fill="#000000" transform="translate(368,221)"/>
<path d="M0 0 C0.86850586 -0.00014603 1.73701172 -0.00029205 2.63183594 -0.0004425 C5.50498952 0.00025464 8.37807843 0.00803778 11.2512207 0.01586914 C13.24233464 0.01773402 15.23344904 0.0191576 17.2245636 0.02015686 C22.46722682 0.02397649 27.70986237 0.03380207 32.95251465 0.04486084 C38.30142848 0.05508685 43.65034679 0.05965704 48.99926758 0.06469727 C59.49602453 0.07542481 69.99276094 0.09249462 80.48950195 0.11352539 C79.31565053 7.13754018 77.84340628 13.96114968 75.86450195 20.80102539 C75.63504883 21.60991211 75.4055957 22.41879883 75.16918945 23.25219727 C74.61389774 25.20728685 74.05238876 27.16060895 73.48950195 29.11352539 C73.07536293 29.11645851 73.07536293 29.11645851 70.97956848 29.13130188 C63.16666386 29.18925063 55.35404445 29.26133979 47.54141712 29.3492403 C43.52502773 29.39393219 39.5087395 29.43319074 35.4921875 29.45996094 C31.61460891 29.486006 27.73741983 29.5264164 23.86008263 29.57671165 C22.38219746 29.59337234 20.90424494 29.60489161 19.42627907 29.6111393 C17.35294571 29.62078954 15.28060699 29.64885709 13.20751953 29.68115234 C12.02837479 29.6922554 10.84923004 29.70335846 9.63435364 29.71479797 C6.17482296 30.15342271 4.28261209 31.06542082 1.48950195 33.11352539 C-0.89037129 36.39933226 -0.80921092 39.57573598 -0.82299805 43.55102539 C-0.83975586 44.66348633 -0.85651367 45.77594727 -0.8737793 46.92211914 C-0.47399952 50.43416302 0.39034576 52.29932815 2.48950195 55.11352539 C4.99907451 56.36831167 6.72233288 56.2448379 9.53076172 56.25537109 C10.58268204 56.26240555 11.63460236 56.26944 12.71839905 56.27668762 C13.28971306 56.27876976 13.28971306 56.27876976 16.1809082 56.28930664 C18.59432827 56.31251668 21.00773975 56.33663449 23.42114258 56.36157227 C27.23052617 56.39660615 31.03959645 56.42598152 34.84912109 56.43945312 C38.5226057 56.45499139 42.19516894 56.49525489 45.8684082 56.53930664 C46.43263741 56.53835243 46.43263741 56.53835243 49.28797913 56.53352356 C59.12420837 56.68455785 66.40075694 59.20654307 73.48950195 66.11352539 C73.48950195 66.77352539 73.48950195 67.43352539 73.48950195 68.11352539 C74.14950195 68.11352539 74.80950195 68.11352539 75.48950195 68.11352539 C81.3902814 73.84367989 86.21075145 79.78347783 86.65063477 88.19458008 C86.68805136 91.3941341 86.7206115 94.59343894 86.72973633 97.79321289 C86.73940566 99.84311066 86.77043835 101.89198909 86.80200195 103.94165039 C86.8367341 112.76361496 86.71129858 120.29030724 80.36450195 127.05102539 C79.75219727 127.70458008 79.13989258 128.35813477 78.5090332 129.03149414 C78.17581055 129.3750293 78.17581055 129.3750293 76.48950195 131.11352539 C76.13049805 131.5034668 76.13049805 131.5034668 74.3137207 133.47680664 C68.741054 139.35746183 63.34691835 144.15860986 54.92089844 144.59454346 C53.23414583 144.60598909 51.54715111 144.5958444 49.8605957 144.56762695 C48.93283829 144.56821106 48.00508087 144.56879517 47.04920959 144.56939697 C44.00808198 144.56662878 40.96795657 144.53559671 37.92700195 144.50415039 C35.80851781 144.4966835 33.69002674 144.49099269 31.5715332 144.48699951 C26.01475723 144.47177852 20.45840414 144.43252701 14.90179443 144.38818359 C9.2240572 144.34715464 3.54625117 144.32897222 -2.1315918 144.30883789 C-13.25807896 144.26602947 -24.38425324 144.19782092 -35.51049805 144.11352539 C-34.94548192 140.05991271 -34.35068643 136.09598618 -33.35424805 132.12524414 C-33.13639648 131.25448242 -32.91854492 130.3837207 -32.6940918 129.48657227 C-32.46850586 128.6003418 -32.24291992 127.71411133 -32.01049805 126.80102539 C-31.78491211 125.89545898 -31.55932617 124.98989258 -31.3269043 124.05688477 C-29.6442504 117.38103009 -29.6442504 117.38103009 -28.51049805 115.11352539 C-28.05140045 115.10837166 -28.05140045 115.10837166 -25.72808838 115.08229065 C-17.07617828 114.98432468 -8.4243366 114.88181141 0.22745895 114.77418613 C4.67545875 114.71901511 9.1234652 114.66560443 13.5715332 114.61621094 C17.86392137 114.56848151 22.15623066 114.51613564 26.44852448 114.46058464 C28.08635749 114.44019995 29.7242121 114.4214805 31.36208344 114.40445137 C33.65561223 114.38032123 35.9489929 114.35027864 38.24243164 114.31884766 C38.89529144 114.31107552 38.89529144 114.31107552 42.19915771 114.27174377 C47.2000738 114.03127141 47.2000738 114.03127141 49.48950195 113.11352539 C51.5180454 108.79240585 51.78656674 104.77934535 51.80200195 100.05102539 C51.81038086 99.45741211 51.81038086 99.45741211 51.8527832 96.45336914 C51.46105135 92.85196343 50.65453624 90.9844346 48.48950195 88.11352539 C46.02750629 86.88252756 44.38518839 86.97585663 41.63183594 86.95581055 C41.12589653 86.95067947 41.12589653 86.95067947 38.5655365 86.92471313 C38.01609627 86.92106247 38.01609627 86.92106247 35.2355957 86.90258789 C32.91332323 86.8745031 30.5910577 86.84583855 28.26879883 86.81665039 C24.60433262 86.77550138 20.93999393 86.7386192 17.27539062 86.7121582 C13.74101789 86.684417 10.20723753 86.63852588 6.6730957 86.59008789 C6.13074028 86.58846146 6.13074028 86.58846146 3.38609314 86.58023071 C-4.44778681 86.45471161 -12.52293169 85.72514776 -18.44799805 80.05102539 C-19.08995117 79.44129883 -19.7319043 78.83157227 -20.39331055 78.20336914 C-21.09198242 77.5137207 -21.7906543 76.82407227 -22.51049805 76.11352539 C-22.94233398 75.71198242 -22.94233398 75.71198242 -25.12768555 73.67993164 C-30.86533608 68.21669048 -34.98325401 63.6774517 -35.91455078 55.6159668 C-35.97267649 48.43239771 -35.97267649 48.43239771 -35.95654297 45.83520508 C-35.94804435 43.74988602 -35.97682661 41.66732406 -36.00854492 39.58227539 C-36.07389258 28.0390171 -33.77448412 20.64867572 -25.76049805 12.36352539 C-25.23335205 11.80568359 -24.70620605 11.2478418 -24.16308594 10.6730957 C-16.90813882 3.18483143 -10.52353772 -0.04605995 0 0 Z " fill="#000000" transform="translate(637.510498046875,220.886474609375)"/>
<path d="M0 0 C0.323955 -0.0032856 0.323955 -0.0032856 1.96336365 -0.01991272 C4.09577578 -0.03953169 6.22811779 -0.05128407 8.3605957 -0.0612793 C8.72716939 -0.06331706 8.72716939 -0.06331706 10.58225441 -0.07362938 C14.46466408 -0.09444387 18.34703891 -0.10876419 22.22949219 -0.11816406 C26.21602359 -0.1292054 30.20199332 -0.16359166 34.18832684 -0.20333576 C37.27436783 -0.22962569 40.36027757 -0.23786688 43.44642067 -0.24144554 C44.91467892 -0.24628138 46.3829325 -0.25780851 47.85107994 -0.27648354 C58.81680859 -0.40727617 68.25400843 0.46489935 76.47387695 8.42700195 C76.88444336 8.82209961 76.88444336 8.82209961 78.9621582 10.8215332 C79.74977539 11.59883789 80.53739258 12.37614258 81.34887695 13.17700195 C82.08493164 13.84086914 82.82098633 14.50473633 83.5793457 15.1887207 C91.24678748 22.28074471 95.04064063 30.09600359 95.49604797 40.5579071 C95.50589218 41.79047745 95.51573639 43.02304779 95.52587891 44.29296875 C95.5324501 44.97843277 95.5390213 45.66389679 95.54579163 46.37013245 C95.56538245 48.62216329 95.5771561 50.87412785 95.5871582 53.1262207 C95.59123373 53.9013331 95.59530926 54.6764455 95.59950829 55.47504616 C95.62030996 59.57906445 95.63463625 63.68304991 95.64404297 67.78710938 C95.65508669 71.99882138 95.68947969 76.21000211 95.72921467 80.42152691 C95.75551339 83.68432006 95.76374653 86.94698914 95.76732445 90.20987892 C95.77215733 91.76104121 95.78367569 93.3121992 95.80236244 94.86325645 C95.95558177 108.42509828 93.8766732 118.98120523 84.34887695 129.17700195 C75.43691279 138.16877475 67.75848452 144.26261165 54.79541016 144.33813477 C54.14603989 144.34309967 53.49666962 144.34806458 52.82762146 144.35317993 C50.68495612 144.36775116 48.5423649 144.37459648 46.3996582 144.38012695 C44.90235901 144.38588427 43.40505981 144.39164193 41.90776062 144.3973999 C38.76809345 144.40789677 35.62845177 144.41374746 32.48876953 144.41723633 C28.48539908 144.42270638 24.48237124 144.44670774 20.47910786 144.47520828 C17.38452709 144.49393 14.29002711 144.49904539 11.19539452 144.5005722 C9.7207471 144.50357979 8.24610045 144.51154356 6.77150917 144.52475739 C-10.51206109 144.66853155 -18.63309046 139.9876894 -31.02612305 128.17700195 C-37.85920659 121.2151947 -40.78074089 114.43155773 -40.85986328 104.68310547 C-40.86964706 103.92165726 -40.87943085 103.16020905 -40.88951111 102.37568665 C-40.91944927 99.85244479 -40.94085511 97.32925633 -40.9597168 94.8059082 C-40.96628862 93.94103224 -40.97286045 93.07615627 -40.97963142 92.18507195 C-41.01223018 87.6001232 -41.03667069 83.01519761 -41.05615234 78.43017578 C-41.07390474 74.65215737 -41.10862545 70.87489392 -41.15869141 67.09716797 C-41.21924092 62.52243206 -41.24967645 57.94839135 -41.25932503 53.37327385 C-41.26782811 51.63868051 -41.28651743 49.90410312 -41.31606865 48.16974068 C-41.5177044 35.65393181 -40.03457708 26.26408015 -31.57299805 16.37231445 C-30.53411825 15.33019221 -29.4766263 14.30628415 -28.40112305 13.30200195 C-27.83973633 12.76027344 -27.27834961 12.21854492 -26.69995117 11.66040039 C-18.49654864 3.95516135 -11.32837331 0.09558097 0 0 Z M-2.2956543 33.67700195 C-5.92431502 38.33722174 -6.77533763 41.29236895 -6.81225586 47.11376953 C-6.8218634 48.33546341 -6.83147095 49.55715729 -6.84136963 50.81587219 C-6.84621814 52.15109063 -6.85049684 53.48631123 -6.85424805 54.8215332 C-6.86000283 56.19292705 -6.86576052 57.56432089 -6.871521 58.93571472 C-6.88202227 61.81147638 -6.88787042 64.68721015 -6.89135742 67.56298828 C-6.89683576 71.23824207 -6.92085286 74.91312419 -6.94932938 78.5882616 C-6.96800484 81.4219417 -6.97316398 84.25553321 -6.9746933 87.08926964 C-6.97917221 89.09998748 -6.99779576 91.1106578 -7.0166626 93.12129211 C-7.0136615 94.35244247 -7.0106604 95.58359283 -7.00756836 96.85205078 C-7.01121399 97.93110184 -7.01485962 99.01015289 -7.01861572 100.12190247 C-6.51207722 104.33294021 -5.02158764 107.70889612 -2.1159668 110.8215332 C1.76109853 113.78634786 3.84449018 115.29119605 8.6875 115.36987305 C9.13660484 115.37790451 9.13660484 115.37790451 11.40934753 115.41854858 C15.52907554 115.46306592 19.64864213 115.50408508 23.76855469 115.52709961 C25.93826035 115.54363379 28.10791211 115.57089003 30.27734375 115.60913086 C33.40954787 115.66405248 36.54047409 115.68579979 39.6730957 115.70043945 C40.15499107 115.71177414 40.15499107 115.71177414 42.59367371 115.76913452 C48.00493035 115.75226059 51.53820223 115.11649179 55.89997864 111.83828735 C59.67277429 107.5124556 60.72541827 103.34531502 60.75292969 97.71606445 C60.76561386 96.45455566 60.77829803 95.19304687 60.79136658 93.89331055 C60.78931508 92.52953933 60.78632701 91.16576926 60.7824707 89.80200195 C60.78703679 88.39005279 60.79234363 86.97810585 60.7983551 85.56616211 C60.80726645 82.61408429 60.80488532 79.66227729 60.79492188 76.71020508 C60.78342538 72.93732033 60.80366278 69.16537062 60.83283901 65.39260864 C60.85123071 62.47910685 60.85090291 59.56582802 60.84520149 56.65228271 C60.84504869 55.26168505 60.8510593 53.87107187 60.86349297 52.48052979 C60.9667028 39.0484614 60.9667028 39.0484614 56.34887695 34.17700195 C52.39071762 30.6050045 49.4772047 29.06502346 44.15625 29.01586914 C43.31495041 29.0062616 42.47365082 28.99665405 41.6068573 28.98675537 C40.70059097 28.98250549 39.79432465 28.97825562 38.8605957 28.97387695 C37.92464066 28.96817688 36.98868561 28.96247681 36.02436829 28.956604 C34.04311248 28.94715713 32.06184099 28.94062126 30.08056641 28.93676758 C27.05839409 28.92707258 24.03690498 28.89605057 21.01489258 28.86450195 C19.08846432 28.85797057 17.1620312 28.85272063 15.2355957 28.84887695 C14.78549889 28.84270355 14.78549889 28.84270355 12.50773621 28.8114624 C6.64774436 28.83213391 2.2135954 29.56405211 -2.2956543 33.67700195 Z " fill="#000000" transform="translate(789.651123046875,220.822998046875)"/>
</svg>
